<svg version="1.0" xmlns="http://www.w3.org/2000/svg"
 width="80" height="80" viewBox="0 0 2507.000000 2346.000000"
 preserveAspectRatio="xMidYMid meet">

<g transform="translate(0.000000,2346.000000) scale(0.100000,-0.100000)"
fill="#102763" stroke="none">
<path d="M10420 21391 c-122 -56 -327 -165 -458 -245 -573 -347 -1012 -763
-1350 -1280 -175 -266 -343 -618 -404 -846 l-21 -80 -125 -66 c-269 -142 -580
-341 -851 -543 l-162 -122 79 103 c277 360 509 783 675 1233 170 461 298 1092
297 1460 l-1 80 -157 -160 c-716 -729 -1162 -1517 -1321 -2335 -41 -211 -53
-339 -55 -576 l-1 -232 -165 -168 c-326 -334 -594 -652 -870 -1034 -100 -139
-107 -146 -85 -95 165 395 271 817 322 1275 21 190 24 720 5 875 -39 312 -82
556 -101 577 -16 18 -268 -419 -406 -704 -301 -623 -449 -1223 -448 -1813 0
-354 53 -685 144 -912 l21 -51 -102 -187 c-173 -315 -350 -693 -476 -1015 -36
-91 -76 -192 -89 -225 l-24 -60 7 125 c12 213 6 562 -12 720 -57 479 -178 898
-382 1315 -67 137 -183 337 -214 369 -17 18 -18 17 -33 -35 -147 -504 -227
-1017 -227 -1450 0 -694 192 -1334 533 -1771 l79 -102 -30 -140 c-102 -465
-151 -841 -170 -1301 l-7 -180 -19 50 c-10 28 -37 97 -59 155 -110 290 -286
593 -505 870 -103 130 -424 447 -552 547 -98 75 -320 223 -336 223 -14 0 27
-373 67 -610 52 -308 163 -670 292 -950 81 -176 228 -416 348 -565 87 -109
258 -284 349 -358 112 -90 327 -229 424 -272 l85 -39 12 -55 c80 -399 234
-818 428 -1166 147 -263 310 -488 524 -723 127 -141 199 -202 234 -202 40 0
93 60 93 105 0 33 -11 48 -114 155 -209 217 -374 430 -514 660 -96 159 -187
339 -176 349 5 4 50 38 99 76 111 85 394 367 496 495 437 544 740 1220 883
1965 30 159 73 460 82 580 l7 89 -34 -24 c-61 -43 -392 -381 -507 -518 -587
-697 -961 -1469 -1087 -2244 -37 -224 -35 -216 -45 -197 -5 9 -32 82 -59 163
-116 338 -192 728 -221 1126 -15 203 -13 665 3 677 6 6 75 38 152 72 541 237
1097 694 1530 1256 250 325 512 773 685 1170 80 184 182 447 175 453 -9 9
-254 -117 -414 -212 -651 -389 -1251 -956 -1658 -1566 -158 -238 -285 -462
-389 -688 -32 -69 -54 -107 -54 -93 0 38 48 340 81 511 116 592 332 1250 608
1849 93 204 88 197 158 205 98 11 276 55 418 102 761 253 1510 822 2129 1619
141 182 300 405 293 411 -7 8 -130 -19 -272 -58 -869 -242 -1711 -808 -2343
-1576 -29 -35 -52 -60 -52 -55 0 5 46 88 103 184 395 667 813 1218 1325 1740
l182 187 93 -24 c691 -177 1541 -47 2347 357 415 209 709 426 882 652 33 43
58 80 56 82 -9 9 -368 78 -503 96 -193 26 -570 36 -755 20 -169 -14 -353 -44
-495 -81 -60 -16 -112 -26 -114 -24 -6 6 303 153 459 219 276 116 647 240 927
311 l111 28 139 -66 c163 -79 202 -95 393 -160 439 -149 808 -207 1249 -195
427 12 847 87 1035 184 67 35 206 157 206 181 0 13 -222 140 -336 193 -569
264 -1193 351 -1839 258 -169 -24 -316 -58 -450 -104 -55 -19 -197 -57 -315
-85 -291 -68 -475 -120 -714 -202 -110 -38 -210 -72 -221 -75 -11 -3 23 25 75
62 218 155 516 429 705 645 286 330 576 768 755 1145 71 148 154 345 148 351
-2 1 -51 -19 -108 -45z"/>
<path d="M9135 16610 c-319 -4 -613 -8 -652 -9 l-73 -1 0 -35 c0 -32 3 -35 38
-40 142 -25 339 -68 385 -85 114 -43 210 -121 243 -199 27 -62 53 -210 64
-361 13 -185 13 -2424 0 -3037 -13 -587 -31 -786 -82 -905 -27 -63 -125 -154
-208 -194 -67 -33 -239 -84 -347 -105 l-63 -12 0 -38 0 -39 358 0 357 0 394
367 393 366 -6 36 c-4 20 -9 329 -13 687 l-6 651 354 6 c836 15 1277 100 1649
319 291 171 484 387 600 672 61 150 82 254 88 439 8 264 -27 445 -122 642
-140 291 -366 512 -679 663 -240 117 -422 162 -799 198 -199 19 -1014 25
-1873 14z m1566 -124 c314 -43 548 -156 765 -371 273 -271 398 -601 381 -1004
-17 -386 -169 -716 -442 -959 -265 -236 -613 -357 -1080 -376 -71 -3 -192 -8
-267 -11 l-138 -6 0 793 c1 826 12 1478 30 1658 5 58 17 140 26 183 14 64 21
80 40 87 80 31 477 34 685 6z"/>
<path d="M19718 14860 c-32 -24 -52 -72 -44 -104 3 -13 70 -82 156 -160 275
-251 525 -559 705 -869 l28 -49 -121 -114 c-237 -224 -454 -501 -614 -784
-332 -585 -509 -1149 -582 -1860 -22 -208 -38 -532 -28 -542 10 -10 186 168
297 302 571 688 963 1504 1094 2280 25 150 51 375 51 448 0 28 4 52 9 52 12 0
123 -265 179 -430 142 -417 218 -848 247 -1401 l6 -117 -128 -67 c-313 -165
-577 -360 -862 -640 -562 -551 -991 -1271 -1274 -2140 -77 -236 -88 -275 -76
-275 16 0 165 88 301 177 646 426 1236 1047 1618 1703 152 262 277 521 364
755 21 55 40 102 43 105 12 12 -20 -367 -52 -605 -78 -578 -264 -1284 -490
-1865 l-56 -145 -82 -18 c-115 -26 -351 -106 -487 -167 -722 -322 -1411 -950
-1962 -1790 -127 -193 -230 -361 -225 -367 10 -10 228 61 423 138 506 199
1022 539 1458 959 202 195 436 464 591 680 92 129 93 129 40 15 -103 -224
-320 -617 -493 -894 -253 -408 -616 -894 -883 -1184 l-54 -59 -111 21 c-512
93 -1115 11 -1719 -234 -601 -244 -1172 -644 -1398 -980 -60 -88 -65 -100 -49
-106 36 -14 340 -49 512 -60 419 -26 887 32 1249 156 41 14 79 25 85 25 23 -1
-269 -165 -469 -265 -247 -122 -421 -197 -699 -300 -300 -110 -271 -106 -396
-53 -269 116 -669 217 -1000 253 -170 19 -514 21 -675 5 -393 -40 -808 -138
-997 -237 -76 -39 -185 -135 -217 -188 l-20 -35 109 -55 c283 -142 581 -235
920 -286 138 -21 189 -24 460 -24 238 0 331 4 425 18 300 44 548 110 775 204
52 22 145 54 205 72 266 78 568 186 824 296 85 36 155 64 157 63 1 -2 -32 -30
-74 -63 -107 -83 -419 -396 -534 -535 -255 -308 -429 -578 -632 -980 -46 -91
-109 -224 -139 -297 -52 -123 -157 -414 -157 -434 0 -13 80 29 230 119 722
434 1253 973 1604 1627 140 260 258 563 310 798 l23 101 141 91 c274 174 605
422 819 612 130 116 132 116 61 13 -120 -175 -275 -454 -371 -671 -211 -476
-344 -979 -402 -1519 -19 -176 -31 -596 -18 -628 9 -22 14 -18 99 80 708 810
1113 1659 1215 2543 17 140 17 466 0 616 l-14 127 123 142 c323 377 618 781
856 1172 32 53 60 96 61 94 1 -1 -13 -51 -33 -111 -83 -264 -155 -608 -186
-890 -20 -187 -17 -790 6 -980 29 -248 129 -718 165 -783 10 -17 77 103 195
349 250 520 400 1005 471 1529 22 160 31 573 16 741 -29 310 -103 618 -202
837 l-28 62 70 153 c189 408 345 820 493 1302 l24 80 1 -170 c2 -368 53 -722
155 -1077 117 -408 334 -858 565 -1175 55 -76 65 -85 72 -68 14 33 67 319 93
505 64 446 70 844 20 1230 -79 608 -313 1155 -649 1518 l-67 72 26 183 c64
456 80 701 74 1127 l-5 324 20 -44 c127 -285 287 -559 443 -761 230 -298 569
-605 871 -791 130 -80 251 -143 259 -135 13 12 -67 445 -121 652 -214 824
-665 1491 -1237 1831 -134 79 -244 134 -330 165 l-66 23 -18 66 c-77 287 -224
643 -379 915 -182 321 -390 591 -651 845 -236 230 -278 256 -336 210z"/>
<path d="M11843 12266 c-180 -45 -307 -178 -320 -333 -11 -137 35 -242 171
-389 43 -47 77 -86 75 -88 -2 -1 -31 -17 -64 -36 -237 -131 -384 -302 -405
-471 -23 -196 75 -383 240 -457 170 -75 346 -67 530 25 81 40 111 63 197 149
l103 101 50 -67 c75 -101 167 -183 257 -227 74 -37 81 -38 177 -38 112 1 172
18 262 78 102 67 235 233 220 273 -5 13 -21 0 -72 -55 -46 -50 -84 -80 -130
-102 -57 -28 -71 -31 -128 -27 -36 3 -85 15 -110 28 -61 29 -178 140 -267 252
-61 76 -71 93 -61 108 18 29 221 277 300 367 134 152 302 267 427 293 38 8 55
16 55 27 0 14 -45 15 -427 8 -236 -4 -431 -9 -435 -12 -5 -2 -8 -10 -8 -17 0
-9 26 -15 88 -19 259 -19 297 -125 135 -379 -44 -70 -167 -238 -174 -238 -3 0
-31 37 -62 83 -106 155 -225 291 -370 422 l-57 52 69 51 c76 55 136 125 172
199 28 58 37 172 19 230 -30 90 -105 163 -205 198 -64 23 -186 28 -252 11z
m150 -75 c50 -33 87 -81 113 -151 25 -66 23 -219 -3 -286 -22 -57 -79 -144
-93 -144 -15 0 -119 96 -172 158 -67 78 -91 133 -96 219 -4 77 7 127 40 169
55 70 134 83 211 35z m-61 -871 c64 -60 160 -165 215 -232 100 -126 193 -258
193 -276 0 -14 -82 -82 -146 -121 -65 -39 -187 -71 -274 -71 -138 0 -258 71
-320 190 -61 117 -49 276 33 419 28 51 161 201 177 201 3 0 59 -49 122 -110z"/>
<path d="M14973 11514 c-12 -3 -159 -133 -327 -290 l-306 -285 7 -102 c13
-176 8 -3295 -5 -3522 -14 -220 -33 -368 -59 -454 -23 -75 -128 -182 -223
-228 -68 -32 -240 -84 -347 -104 l-63 -12 0 -38 0 -39 1125 0 1125 0 0 39 0
38 -82 7 c-171 13 -317 61 -439 142 -111 74 -181 169 -209 285 -18 78 -31 470
-33 1044 l-2 560 400 6 c656 11 1044 67 1360 196 483 197 806 548 906 983 29
129 37 384 15 525 -45 295 -162 522 -380 741 -129 128 -256 217 -427 298 -254
119 -434 160 -859 197 -127 10 -1137 22 -1177 13z m929 -128 c332 -42 576
-162 799 -393 181 -188 287 -386 340 -634 27 -126 33 -408 10 -524 -127 -658
-589 -1067 -1301 -1150 -69 -9 -236 -18 -372 -22 l-248 -6 0 564 c1 728 16
1676 30 1849 6 74 20 174 31 222 l20 86 41 7 c158 27 437 27 650 1z"/>
</g>
</svg>
