<svg
   width="120.16154mm"
   height="112.55228mm"
   viewBox="0 0 120.16154 112.55228"
   version="1.1"
   id="svg5"
   ><defs
     id="defs2" /><g
     id="layer1"
     transform="translate(-230.41738,-74.490751)"><g
       id="g218"
       transform="translate(179.42057,1.6536458)"><path
         style="display:inline;fill:#bacdff;fill-opacity:1;stroke-width:0.0888112"
         d="m 134.57404,185.1716 c -2.14606,-0.69462 -4.65272,-2.50523 -6.30544,-4.55451 -0.99471,-1.23338 -1.41096,-2.14466 -1.91566,-4.19378 -0.49626,-2.01485 -0.73738,-2.60937 -1.54881,-3.81888 -0.27854,-0.41519 -0.89307,-1.37933 -1.36563,-2.14252 -0.78773,-1.27219 -1.127,-1.7338 -1.12586,-1.53181 0,0.0426 0.22276,0.79685 0.49447,1.67608 0.96824,3.13303 1.34103,5.10391 1.25149,6.61643 -0.0515,0.86963 -0.16872,1.32001 -0.54322,2.08707 -0.14547,0.29792 -0.26416,0.79477 -0.36068,1.50979 -0.16016,1.18652 -0.35578,1.73038 -0.7046,1.95894 -0.22878,0.1499 -0.24118,0.14747 -0.55884,-0.10964 -1.07135,-0.86711 -1.79933,-2.97859 -1.79933,-5.21885 0,-0.83022 0.0359,-1.0155 0.48993,-2.52529 0.74721,-2.48491 0.9571,-3.61293 0.96057,-5.16216 0.003,-1.55275 -0.18407,-2.44211 -0.78043,-3.70107 -0.46954,-0.9912 -1.28396,-2.20378 -1.40134,-2.08641 -0.05,0.0501 -0.0387,0.49227 0.0292,1.13629 0.16263,1.54254 0.14004,3.73596 -0.0474,4.6012 -0.20373,0.94042 -0.51211,1.6865 -0.92002,2.22587 -0.18471,0.24423 -0.58731,0.92363 -0.89467,1.50979 -1.06203,2.02533 -1.67159,2.50169 -2.29404,1.79276 -0.71836,-0.81817 -1.05591,-3.2577 -0.65365,-4.72397 0.10562,-0.385 0.35767,-1.02198 0.5601,-1.41551 0.3103,-0.60328 0.55143,-0.89663 1.53705,-1.87007 1.29747,-1.2814 1.55855,-1.69696 1.72644,-2.74793 0.25331,-1.58564 -0.35247,-3.35946 -2.27255,-6.6544 -0.80343,-1.37872 -0.99788,-1.65466 -1.16605,-1.65466 -0.19259,0 -0.20179,0.0315 -0.20112,0.68829 0,0.37856 0.0603,1.16635 0.13322,1.75064 0.22963,1.84102 0.12666,2.84343 -0.39816,3.8762 -0.33546,0.66016 -0.73158,2.16581 -1.37602,5.23033 -0.69918,3.32482 -0.86079,3.94427 -1.03789,3.97816 -0.10975,0.021 -0.29532,-0.27151 -0.7318,-1.15352 -1.66742,-3.36939 -2.17656,-6.96176 -1.32429,-9.34382 0.44617,-1.24701 1.05131,-1.95692 2.72017,-3.1911 0.35361,-0.26151 0.75054,-0.60336 0.88207,-0.75968 0.23237,-0.27615 0.49472,-0.94307 0.40592,-1.03188 -0.0395,-0.0395 -47.982157,0.24102 -58.710815,0.34351 l -4.329545,0.0413 v -0.56948 -0.56949 l 3.086189,-8.9e-4 c 1.697404,0 27.964423,-0.13994 58.371151,-0.31008 30.40673,-0.17015 55.97437,-0.3097 56.81696,-0.31012 l 1.532,-8.9e-4 v 0.47388 0.47387 l -6.06137,0.0589 c -3.33375,0.0324 -8.19242,0.059 -10.79706,0.059 l -4.73569,8e-5 -0.32655,0.36498 c -0.69161,0.77305 -2.6232,2.17632 -3.83458,2.7858 -1.52391,0.76671 -3.51969,0.84734 -5.50191,0.22227 -0.46163,-0.14557 -0.97737,-0.26466 -1.1461,-0.26466 -0.30668,0 -0.30673,7e-5 -0.13761,0.18873 0.0931,0.1038 0.44894,0.37596 0.79086,0.60482 1.97772,1.32369 3.77024,1.95777 5.53789,1.95897 1.45354,9.8e-4 2.63833,-0.39395 3.56526,-1.18842 1.61344,-1.38289 6.11145,-3.25152 7.82677,-3.25152 0.52782,0 0.87805,0.18645 0.87586,0.46626 -0.004,0.52677 -1.15002,1.98381 -2.39224,3.04179 -1.33669,1.13843 -2.41621,1.74177 -3.7665,2.10506 -0.99499,0.2677 -2.94079,0.26262 -4.05368,-0.0106 -1.24006,-0.30442 -2.58523,-0.56018 -2.64291,-0.50249 -0.10478,0.10477 0.13894,0.24016 1.22982,0.68313 1.51802,0.61642 4.09118,1.46562 4.83169,1.59458 0.92478,0.16105 2.00103,0.0505 4.13086,-0.42446 l 1.90893,-0.42565 2.22028,0.007 c 3.52071,0.0107 7.56638,0.50959 7.95784,0.98128 0.18328,0.22084 -0.0209,0.31872 -2.08628,1.00017 -3.38531,1.11696 -4.83141,1.43101 -6.58917,1.43101 -1.33518,0 -2.38069,-0.18932 -4.34462,-0.78672 -0.78154,-0.23773 -2.17377,-0.66076 -3.09383,-0.94006 -0.92007,-0.27931 -1.6912,-0.48948 -1.71363,-0.46705 -0.11213,0.11213 1.8986,1.11285 4.24971,2.11502 1.01209,0.43141 2.12179,0.9262 2.46599,1.09953 1.69005,0.8511 3.27643,2.03999 4.0421,3.0293 1.2543,1.62066 1.58759,1.99529 2.47622,2.78333 1.03779,0.9203 1.47698,1.46052 1.31725,1.62025 -0.11994,0.11994 -0.97897,0.11237 -2.17419,-0.0191 -3.34715,-0.36831 -5.57146,-1.7718 -8.58172,-5.41487 -2.63469,-3.18854 -3.53897,-4.14113 -4.86319,-5.12298 -0.7867,-0.58331 -1.85233,-1.16364 -2.75802,-1.50198 -0.33168,-0.12391 -1.20253,-0.53782 -1.93523,-0.91982 -1.41289,-0.73661 -2.40974,-1.18541 -2.53465,-1.14114 -0.0416,0.0148 0.065,0.24664 0.23702,0.51529 0.44834,0.70026 1.13164,2.07652 1.54046,3.10266 0.92758,2.32827 1.55867,5.33127 2.00132,9.52305 0.19627,1.85866 0.10083,2.0449 -0.76372,1.49011 -0.80446,-0.51622 -2.12421,-2.05347 -3.48666,-4.06129 -1.27794,-1.88327 -1.6877,-2.94252 -1.69078,-4.37061 -0.003,-1.18223 0.11844,-1.62807 1.01739,-3.74951 0.38745,-0.91434 0.70445,-1.76519 0.70445,-1.89078 0,-0.59465 -0.70782,-1.46912 -1.81462,-2.24188 -1.09213,-0.76252 -2.65769,-2.03714 -3.66842,-2.98668 l -0.90928,-0.85423 h -1.29917 -1.29916 l 0.0582,0.19982 c 0.032,0.10991 0.11592,0.4596 0.18644,0.7771 0.41594,1.87269 -0.24019,3.65576 -1.65717,4.50341 -0.68567,0.41018 -1.37512,0.56482 -2.51414,0.56392 -0.94131,-8.9e-4 -1.01875,0.0147 -2.43685,0.48553 -1.93572,0.64271 -2.49324,0.65042 -2.80952,0.0388 -0.15357,-0.29697 -0.11152,-0.4273 0.31412,-0.97349 0.33319,-0.42757 0.80106,-1.38053 1.31617,-2.68084 0.49154,-1.24079 0.81223,-1.90384 1.18099,-2.4418 0.13996,-0.20419 0.25449,-0.39756 0.25449,-0.42972 0,-0.0322 -0.26715,0.18631 -0.59366,0.48551 -1.11916,1.02549 -2.48905,1.48326 -3.78029,1.26321 -0.82885,-0.14124 -1.53205,-0.47608 -2.42926,-1.15672 -0.66891,-0.50745 -0.75238,-0.54593 -1.18432,-0.54593 h -0.46469 l 1.35069,2.64213 c 2.82013,5.5166 3.52323,6.48571 4.56381,6.29049 0.15884,-0.0298 0.69702,-0.31385 1.19596,-0.63122 1.60315,-1.01976 2.57903,-1.41833 4.09905,-1.67411 1.2944,-0.21783 2.50602,-0.21282 4.12557,0.017 2.16705,0.30757 2.88637,0.5301 2.88637,0.8929 0,0.089 -0.0699,0.22346 -0.15542,0.29881 -0.38757,0.34167 -2.76485,1.35567 -4.19633,1.78991 -1.68922,0.51242 -2.41797,0.62188 -4.17413,0.62697 -1.81677,0.005 -2.49989,-0.11721 -3.70737,-0.66471 -0.32098,-0.14554 -0.60062,-0.2476 -0.62142,-0.2268 -0.0493,0.0493 0.5466,1.54428 0.88822,2.22844 0.74884,1.49975 1.93097,2.85214 3.02405,3.45961 1.26448,0.70273 2.44046,0.96021 5.07911,1.1121 2.03839,0.11734 3.29062,0.24306 4.12714,0.41436 1.39155,0.28496 2.80509,0.82579 3.90558,1.4943 0.82491,0.50111 0.80037,0.72053 -0.11304,1.01081 -0.3016,0.0959 -1.05141,0.33677 -1.66628,0.53539 -1.52906,0.49394 -2.57316,0.66661 -3.63347,0.60091 -2.3394,-0.14498 -3.92538,-1.02355 -7.49357,-4.15116 -0.37961,-0.33274 -0.42498,-0.3529 -0.36752,-0.16327 0.25305,0.83502 1.26335,2.01414 2.79885,3.26655 2.36642,1.93013 2.53366,2.12831 3.70378,4.38896 1.06144,2.05068 1.95324,3.39361 2.88147,4.3391 0.72547,0.73898 1.05081,1.12704 1.05193,1.25475 0.001,0.1249 -0.48678,0.059 -1.14807,-0.15502 z m 0.21369,-0.39607 c 0.0288,-0.0467 -0.15084,-0.28917 -0.39928,-0.53892 -0.72514,-0.72898 -1.42097,-1.7343 -2.46909,-3.56733 -1.18588,-2.07397 -1.66838,-2.77049 -2.46864,-3.5637 -0.60916,-0.60379 -1.4326,-1.21514 -1.63669,-1.21514 -0.17791,0 -0.0346,0.5762 0.28017,1.12633 0.15736,0.27505 0.73209,1.12329 1.27716,1.88496 1.33156,1.86068 1.42469,2.03393 0.69415,1.29128 -0.34513,-0.35085 -0.99505,-1.19749 -1.47728,-1.92443 -0.47357,-0.71388 -1.03873,-1.49105 -1.25591,-1.72704 l -0.39488,-0.42907 -0.004,0.36725 c -0.005,0.50169 0.21781,1.15552 0.75195,2.20828 0.76368,1.50516 1.35629,2.32578 2.1859,3.02691 1.82284,1.54054 3.95612,2.92323 4.84656,3.14131 0.009,0.002 0.0405,-0.034 0.0694,-0.0807 z m -12.49606,-2.47611 c 0.062,-0.0393 0.17367,-0.42839 0.2482,-0.86455 0.0745,-0.43617 0.27846,-1.5124 0.45318,-2.39163 0.36442,-1.8339 0.48078,-3.57199 0.30174,-4.50703 -0.17418,-0.9097 -0.4503,-1.76428 -0.55012,-1.70258 -0.0606,0.0374 -0.0815,1.00454 -0.0621,2.86662 0.0161,1.54557 -0.003,2.86073 -0.0434,2.92259 -0.19416,0.30017 -0.23878,-0.15526 -0.2486,-2.53781 -0.0116,-2.81618 -0.0372,-3.08095 -0.29801,-3.08095 -0.46554,0 -1.46344,3.16065 -1.46654,4.64491 -10e-4,0.5904 0.47316,2.65409 0.80511,3.50241 0.21248,0.54296 0.59397,1.22287 0.68506,1.2209 0.0346,-8.9e-4 0.11357,-0.0335 0.17554,-0.0729 z m 11.92123,-6.53685 c 0.46404,-0.0696 1.59306,-0.29728 2.50892,-0.50589 1.86784,-0.42543 1.954,-0.48809 1.31126,-0.95369 -0.45724,-0.33122 -2.55487,-1.02302 -3.64255,-1.2013 -1.11235,-0.18233 -4.95291,-0.44109 -6.70525,-0.45177 -0.27287,-0.002 -0.21108,0.23573 0.11933,0.45839 0.58481,0.3941 3.3424,1.30716 4.29903,1.42343 0.23202,0.0282 0.42185,0.0914 0.42185,0.14047 0,0.1319 -1.03461,0.0127 -2.17587,-0.25076 -1.65301,-0.38153 -1.58674,-0.39039 -1.02133,0.13666 1.20909,1.12709 2.79474,1.51809 4.88461,1.20446 z m 27.97553,-0.36319 c 0,-0.0259 -0.64943,-0.69527 -1.44318,-1.48759 -0.79375,-0.79232 -1.98271,-2.00502 -2.64214,-2.69489 -0.65942,-0.68988 -1.50015,-1.47445 -1.86828,-1.7435 -0.98276,-0.71826 -2.33946,-1.36068 -3.40928,-1.61436 -0.23283,-0.0552 -0.24731,-0.0466 -0.13967,0.0831 0.066,0.0796 0.54261,0.48943 1.05904,0.9108 1.83079,1.49377 2.33263,1.97527 2.05873,1.97527 -0.0436,0 -0.59307,-0.41254 -1.22115,-0.91675 -2.76492,-2.2196 -4.29477,-3.22453 -4.29477,-2.82113 0,0.10024 1.2642,1.87518 1.93488,2.71655 0.79336,0.9953 2.47951,2.61457 3.39379,3.25919 1.53064,1.07918 3.20963,1.82287 4.8426,2.14497 1.04934,0.20697 1.72943,0.28104 1.72943,0.18834 z m -18.80272,-1.24075 c -0.007,-0.80127 -0.0999,-1.2283 -0.68288,-3.13035 -0.12348,-0.40285 -0.34692,-1.40197 -0.49652,-2.22028 -0.32022,-1.7516 -0.54747,-2.6292 -0.8634,-3.33456 -0.3445,-0.7691 -0.42476,-0.56924 -0.41313,1.02877 0.011,1.51293 0.17451,2.74339 0.57721,4.34346 0.14739,0.58562 0.25177,1.08097 0.23196,1.10078 -0.0619,0.0619 -0.58163,-0.71593 -0.72215,-1.08095 -0.0737,-0.19147 -0.17461,-0.50799 -0.22423,-0.70338 -0.13417,-0.52831 -0.51761,-3.42811 -0.5813,-4.39615 -0.0586,-0.89041 -0.17526,-1.46817 -0.31375,-1.55376 -0.12078,-0.0746 -0.67406,0.79934 -0.89927,1.42054 -0.27665,0.76306 -0.27995,2.12154 -0.008,3.1528 0.45627,1.72799 1.94773,4.19805 3.54319,5.86801 0.6576,0.6883 0.68827,0.70859 0.77171,0.51058 0.0478,-0.11342 0.0839,-0.5659 0.0802,-1.00551 z m -27.17128,0.73269 c 0.11927,-0.15875 0.36072,-0.57663 0.53655,-0.92864 0.17583,-0.352 0.51614,-0.93149 0.75625,-1.28776 1.27113,-1.88613 1.97857,-4.01034 1.83866,-5.52096 -0.097,-1.04785 -0.16915,-0.98123 -0.62843,0.58062 -0.53046,1.80389 -0.89052,2.75975 -1.11664,2.96439 -0.28023,0.2536 -0.31085,0.0761 -0.0891,-0.51678 0.49444,-1.32207 0.94055,-3.33236 0.776,-3.49691 -0.14983,-0.14983 -1.3134,0.90215 -1.88974,1.70851 -0.47672,0.66698 -0.95704,1.66976 -1.16606,2.43442 -0.21881,0.80047 -0.21482,3.05891 0.006,3.63685 0.29378,0.76741 0.61456,0.9075 0.97612,0.42626 z m -3.86301,-5.7841 c 0.97715,-2.98984 2.36517,-9.52652 2.17627,-10.24886 -0.11891,-0.45473 -0.30415,-0.15761 -0.82989,1.33114 -0.47847,1.35489 -1.17845,3.62106 -1.50299,4.86598 -0.23203,0.89001 -0.26673,0.96858 -0.26989,0.61111 -0.006,-0.73659 0.25652,-1.95702 0.79205,-3.6751 0.62855,-2.01647 0.6899,-2.24708 0.7874,-2.96006 0.0729,-0.53298 0.0693,-0.54889 -0.11,-0.49362 -0.36249,0.11174 -0.96951,0.51501 -1.46191,0.97123 -0.60547,0.56099 -1.08952,1.35325 -1.40817,2.30483 -0.22099,0.65993 -0.23821,0.82109 -0.24196,2.26469 -0.003,1.16649 0.0357,1.74251 0.15507,2.30909 0.21314,1.0112 0.61274,2.29729 1.00473,3.23373 0.25245,0.60305 0.34635,0.74734 0.43727,0.67187 0.0637,-0.0529 0.27609,-0.58657 0.47202,-1.18603 z m 46.86469,-2.22165 c 0.24265,-0.0681 1.20054,-0.32842 2.12861,-0.57855 1.93563,-0.52171 3.49535,-1.02399 3.73954,-1.20426 0.12812,-0.0946 0.14356,-0.14909 0.0649,-0.22894 -0.17621,-0.17882 -0.80575,-0.24824 -3.54929,-0.39133 -1.45917,-0.0761 -2.77293,-0.15493 -2.91947,-0.17516 -0.66235,-0.0914 -3.626,0.2504 -4.54094,0.52377 -1.34392,0.40155 -0.40437,0.62226 2.6759,0.6286 1.22116,0.002 2.38014,0.0172 2.57553,0.0326 l 0.35524,0.0281 -0.44405,0.0812 c -0.24423,0.0446 -1.57112,0.10988 -2.94863,0.14497 -1.88948,0.0482 -2.5329,0.0926 -2.61993,0.18113 -0.1864,0.18956 0.17591,0.41119 1.01172,0.61889 1.64512,0.4088 3.67364,0.56261 4.47088,0.33899 z m -31.50513,-1.12487 c 1.16423,-0.127 2.33858,-0.37684 3.32768,-0.70794 0.87654,-0.29342 2.46376,-1.03309 2.46376,-1.14814 0,-0.1604 -2.55377,-0.60036 -3.96026,-0.68227 -2.19915,-0.12807 -4.47065,0.49812 -5.42668,1.49599 -0.21158,0.22085 -0.21838,0.24865 -0.0743,0.30393 0.1657,0.0636 1.53325,-0.14967 3.86612,-0.60292 1.35313,-0.26289 2.51823,-0.3448 2.67497,-0.18806 0.0469,0.0469 -0.47674,0.18266 -1.27548,0.33065 -2.72429,0.50474 -4.82797,1.05942 -4.58977,1.21018 0.17339,0.10975 1.9452,0.10299 2.99395,-0.0114 z m -4.95244,-3.32596 c 0.20893,-0.0737 1.28302,-0.31537 2.38688,-0.53702 2.29736,-0.46131 3.04086,-0.66461 3.76365,-1.02914 1.62032,-0.81718 2.07375,-2.18332 1.47698,-4.44999 -0.0873,-0.33148 -0.0899,-0.33304 -0.55441,-0.33304 h -0.46674 l -0.25061,0.7771 c -0.51386,1.59343 -1.03867,2.49072 -1.56385,2.67379 -0.25581,0.0892 -0.26231,0.0852 -0.16332,-0.0998 0.0567,-0.10594 0.24059,-0.40756 0.40863,-0.67027 0.45529,-0.71172 0.98722,-1.87521 1.05311,-2.30342 l 0.0581,-0.37745 h -1.37827 -1.37827 l -0.49691,0.49692 c -0.64535,0.64534 -1.1062,1.35017 -2.05592,3.14434 -0.42662,0.80596 -0.91033,1.66935 -1.07492,1.91863 -0.27893,0.42248 -0.39913,0.92333 -0.2216,0.92333 0.0427,0 0.24858,-0.0603 0.4575,-0.13403 z m 3.50576,-1.90863 c -0.0302,-0.0488 -0.0149,-0.0888 0.0339,-0.0888 0.0489,0 0.11351,0.04 0.1437,0.0888 0.0302,0.0489 0.0149,0.0888 -0.0339,0.0888 -0.0489,0 -0.11351,-0.04 -0.1437,-0.0888 z m 24.49311,1.69222 c 1.37738,-0.35228 2.76508,-1.15211 3.97844,-2.29305 0.63998,-0.60178 1.67985,-1.84986 1.67985,-2.01619 0,-0.12016 -1.35349,0.0205 -2.14868,0.2233 -1.60141,0.40841 -3.17142,1.21382 -4.89627,2.51179 -1.05473,0.79369 -1.24404,0.99725 -1.04298,1.12151 0.24795,0.15324 1.92801,-0.35759 4.21379,-1.2812 0.66867,-0.27019 1.23581,-0.49125 1.26031,-0.49125 0.0245,0 0.002,0.0793 -0.0498,0.17624 -0.14257,0.26641 -1.38898,0.82231 -2.97591,1.32726 -1.81211,0.57659 -2.17587,0.7125 -2.17587,0.81294 0,0.14965 1.45584,0.088 2.15709,-0.0913 z m -7.35255,-2.89252 c 1.18076,-0.24974 2.60624,-1.0586 3.7913,-2.1513 0.35819,-0.33027 0.81067,-0.72904 1.0055,-0.88616 l 0.35425,-0.28565 -2.51984,-0.003 -2.51984,-0.003 -0.54414,0.38996 c -0.58413,0.41861 -1.83191,1.65886 -1.83191,1.82085 0,0.14024 0.89708,0.12152 1.63137,-0.0341 0.6896,-0.1461 1.36646,-0.38532 2.00324,-0.70801 0.37111,-0.18806 0.44886,-0.20141 0.53918,-0.0926 0.0864,0.10414 0.0298,0.17517 -0.3129,0.39251 -0.41704,0.26448 -2.64654,1.03752 -3.61666,1.25403 -0.28087,0.0627 -0.51067,0.14324 -0.51067,0.17903 0,0.0987 0.77713,0.23979 1.37658,0.24986 0.29307,0.005 0.81262,-0.0502 1.15454,-0.12252 z m -3.90769,-1.41375 c 0.34192,-0.16055 1.11559,-0.65717 1.71927,-1.10361 l 1.09758,-0.81171 -3.40667,0.011 c -1.87368,0.006 -3.68567,0.036 -4.02665,0.0666 l -0.61996,0.0556 0.61996,0.52562 c 1.89873,1.60981 3.14281,1.94842 4.61647,1.25648 z m -16.99639,-0.70727 c 0.27467,-0.13269 0.71429,-0.4409 0.97692,-0.6849 l 0.47751,-0.44363 -1.99825,0.0542 c -1.92614,0.0522 -3.00497,0.15287 -3.44951,0.32188 -0.28355,0.10781 -0.15027,0.26224 0.45493,0.52712 0.92246,0.40372 1.48692,0.5262 2.28409,0.49562 0.60012,-0.023 0.85729,-0.0784 1.25431,-0.27025 z m -30.051337,8.23593 c 0.06106,-0.0246 0.16097,-0.0246 0.222028,0 0.06106,0.0246 0.0111,0.0448 -0.111014,0.0448 -0.122116,0 -0.172072,-0.0202 -0.111014,-0.0448 z M 68.93668,164.3894 c 0.265317,-0.26866 0.502377,-0.48847 0.5268,-0.48847 0.02442,0 -0.172672,0.21981 -0.437989,0.48847 -0.265316,0.26865 -0.502376,0.48846 -0.526799,0.48846 -0.02442,0 0.172672,-0.21981 0.437988,-0.48846 z m 15.009091,0 c 0.265317,-0.26866 0.502377,-0.48847 0.5268,-0.48847 0.02442,0 -0.172672,0.21981 -0.437988,0.48847 -0.265317,0.26865 -0.502377,0.48846 -0.5268,0.48846 -0.02442,0 0.172672,-0.21981 0.437988,-0.48846 z m -14.032168,-0.96606 c 0,-0.0184 0.06994,-0.0884 0.15542,-0.15542 0.14086,-0.11046 0.144001,-0.10732 0.03353,0.0335 -0.11602,0.14793 -0.188951,0.19498 -0.188951,0.12188 z m 15.009091,0 c 0,-0.0184 0.06994,-0.0884 0.15542,-0.15542 0.14086,-0.11046 0.144001,-0.10732 0.03353,0.0335 -0.116021,0.14793 -0.188952,0.19498 -0.188952,0.12188 z m 9.014336,-0.85457 c 0.08841,-0.0977 0.180729,-0.17763 0.205152,-0.17763 0.02442,0 -0.02793,0.0799 -0.116341,0.17763 -0.08841,0.0977 -0.180729,0.17762 -0.205152,0.17762 -0.02442,0 0.02793,-0.0799 0.116341,-0.17762 z m 0.799301,-0.53287 c 0.08841,-0.0977 0.180729,-0.17762 0.205152,-0.17762 0.02442,0 -0.02793,0.0799 -0.116341,0.17762 -0.08841,0.0977 -0.180729,0.17762 -0.205152,0.17762 -0.02442,0 0.02793,-0.0799 0.116341,-0.17762 z m -1.304414,-0.23829 c 0.06411,-0.0257 0.14071,-0.0225 0.170221,0.007 0.02951,0.0295 -0.02294,0.0505 -0.116564,0.0466 -0.103461,-0.004 -0.124505,-0.0253 -0.05366,-0.0537 z M 119.6756,148.41193 c -0.92084,-0.34219 -2.02992,-1.03625 -3.76693,-2.35734 l -0.23116,-0.1758 -0.47331,0.40401 c -0.96943,0.82749 -2.40318,1.55528 -3.54951,1.80175 -2.07625,0.44643 -4.76719,0.22822 -6.48539,-0.52591 -2.79055,-1.22477 -4.38607,-3.40672 -4.7029,-6.43141 -0.0935,-0.89294 0.006,-2.2791 0.22486,-3.11848 0.20501,-0.78775 0.7265,-2.04039 1.13984,-2.7379 0.44472,-0.75047 1.55652,-1.94867 2.36822,-2.55226 l 0.59945,-0.44575 -0.20671,-0.52746 c -0.58455,-1.49158 -0.84139,-2.75656 -0.84139,-4.14387 0,-1.34773 0.1797,-2.17854 0.7064,-3.26596 1.1217,-2.31586 3.25655,-3.54345 5.90174,-3.39366 2.35037,0.1331 4.37215,1.68227 5.28153,4.04692 0.87472,2.27452 0.41991,4.35633 -1.04781,4.79607 -0.67993,0.20371 -1.5696,0.0527 -1.4735,-0.25005 0.15816,-0.49829 0.31206,-1.63481 0.31206,-2.30442 0,-2.35027 -0.97171,-4.4413 -2.38685,-5.13626 -0.42307,-0.20777 -0.60146,-0.24326 -1.1656,-0.23187 -0.9996,0.0202 -1.5943,0.27679 -2.31697,0.99976 -0.98684,0.98726 -1.39168,2.07595 -1.47265,3.96022 -0.085,1.97819 0.26826,3.40274 1.43155,5.77273 1.41213,2.87697 3.286,5.37281 6.49981,8.6572 l 1.66875,1.7054 0.25014,-0.74074 c 0.38504,-1.1402 0.58536,-1.99323 0.9665,-4.11557 0.60927,-3.3926 0.81262,-4.04091 1.26751,-4.04091 0.29956,0 0.6304,0.42478 0.77414,0.99394 0.15545,0.61559 0.12961,2.41538 -0.0523,3.64031 -0.26442,1.78076 -0.83554,3.59402 -1.52755,4.84977 -0.16927,0.30717 -0.29496,0.59256 -0.2793,0.6342 0.0468,0.12452 2.26342,2.00808 3.3353,2.83416 0.82865,0.63863 0.99799,0.80925 0.99913,1.00674 0.002,0.33832 -0.37006,0.60714 -0.83211,0.60129 -0.20101,-0.003 -0.61276,-0.0965 -0.91501,-0.20885 z m -8.44222,-1.21139 c 0.99786,-0.23612 1.82008,-0.73445 2.78818,-1.68984 l 0.54605,-0.53889 -1.9282,-1.92547 c -3.12389,-3.11947 -5.24003,-5.8356 -6.8857,-8.83802 l -0.33268,-0.60695 -0.21239,0.19953 c -0.56816,0.53376 -1.42757,2.00599 -1.83637,3.14584 -0.55821,1.55641 -0.72211,3.72687 -0.39653,5.25093 0.53905,2.52333 2.0314,4.23189 4.29272,4.91466 1.10792,0.33452 2.76793,0.37145 3.96492,0.0882 z m 35.48525,0.5649 c 0.0641,-0.0257 0.14071,-0.0225 0.17022,0.007 0.0295,0.0295 -0.0229,0.0505 -0.11656,0.0466 -0.10346,-0.004 -0.1245,-0.0253 -0.0537,-0.0536 z m 1.15455,0 c 0.0641,-0.0257 0.14071,-0.0225 0.17022,0.007 0.0295,0.0295 -0.0229,0.0505 -0.11656,0.0466 -0.10347,-0.004 -0.12451,-0.0253 -0.0537,-0.0536 z m -7.95416,-0.0894 c 0.0855,-0.0223 0.22536,-0.0223 0.31084,0 0.0855,0.0223 0.0155,0.0406 -0.15542,0.0406 -0.17096,0 -0.2409,-0.0183 -0.15542,-0.0406 z m -18.02698,-0.0891 c 0.0864,-0.0225 0.20631,-0.021 0.26643,0.003 0.0601,0.0243 -0.0106,0.0428 -0.1571,0.0409 -0.14654,-0.002 -0.19573,-0.0217 -0.10933,-0.0442 z m 2.17974,8.9e-4 c 0.0641,-0.0257 0.14071,-0.0225 0.17022,0.007 0.0295,0.0295 -0.023,0.0505 -0.11656,0.0466 -0.10347,-0.004 -0.12451,-0.0253 -0.0537,-0.0537 z m 0.29711,-0.11697 c 0,-0.12211 0.0202,-0.17207 0.0448,-0.11101 0.0246,0.0611 0.0246,0.16097 0,0.22203 -0.0246,0.0611 -0.0448,0.0111 -0.0448,-0.11102 z m 3.60503,0.11881 c 0.0611,-0.0246 0.16097,-0.0246 0.22203,0 0.061,0.0246 0.0111,0.0448 -0.11102,0.0448 -0.12211,0 -0.17207,-0.0202 -0.11101,-0.0448 z m 1.95384,0 c 0.0611,-0.0246 0.16098,-0.0246 0.22203,0 0.0611,0.0246 0.0111,0.0448 -0.11101,0.0448 -0.12212,0 -0.17207,-0.0202 -0.11102,-0.0448 z m 3.33211,-0.003 c 0.0864,-0.0225 0.20631,-0.021 0.26644,0.003 0.0601,0.0243 -0.0106,0.0428 -0.15711,0.0409 -0.14654,-0.002 -0.19573,-0.0217 -0.10933,-0.0442 z m 2.13147,0 c 0.0864,-0.0225 0.20631,-0.021 0.26643,0.003 0.0601,0.0243 -0.0106,0.0428 -0.1571,0.0409 -0.14654,-0.002 -0.19573,-0.0217 -0.10933,-0.0442 z m 0.87825,-0.11608 c 0,-0.12211 0.0202,-0.17207 0.0448,-0.11101 0.0246,0.0611 0.0246,0.16097 0,0.22203 -0.0246,0.0611 -0.0448,0.0111 -0.0448,-0.11102 z m 0.31901,0.11881 c 0.0611,-0.0246 0.16097,-0.0246 0.22203,0 0.0611,0.0246 0.0111,0.0448 -0.11101,0.0448 -0.12212,0 -0.17207,-0.0202 -0.11102,-0.0448 z m 1.82063,-0.002 c 0.0855,-0.0223 0.22536,-0.0223 0.31084,0 0.0855,0.0223 0.0155,0.0406 -0.15542,0.0406 -0.17096,0 -0.2409,-0.0183 -0.15542,-0.0406 z m 14.12267,-3.5e-4 c 0.0864,-0.0225 0.20631,-0.021 0.26643,0.003 0.0601,0.0243 -0.0106,0.0427 -0.1571,0.0409 -0.14654,-0.002 -0.19573,-0.0217 -0.10933,-0.0442 z m 2.00212,8.8e-4 c 0.0641,-0.0257 0.14071,-0.0225 0.17022,0.007 0.0295,0.0295 -0.023,0.0505 -0.11656,0.0466 -0.10347,-0.004 -0.12451,-0.0253 -0.0537,-0.0537 z m 5.72445,-8.8e-4 c 0.0864,-0.0225 0.20631,-0.021 0.26644,0.003 0.0601,0.0243 -0.0106,0.0427 -0.15711,0.0409 -0.14654,-0.002 -0.19573,-0.0217 -0.10933,-0.0442 z m 2.17974,8.8e-4 c 0.0641,-0.0257 0.14071,-0.0225 0.17023,0.007 0.0295,0.0295 -0.023,0.0505 -0.11657,0.0466 -0.10346,-0.004 -0.1245,-0.0253 -0.0537,-0.0537 z m 0.75103,-8.8e-4 c 0.0864,-0.0225 0.20631,-0.021 0.26644,0.003 0.0601,0.0243 -0.0106,0.0427 -0.15711,0.0409 -0.14654,-0.002 -0.19573,-0.0217 -0.10933,-0.0442 z m 1.99657,0.003 c 0.0611,-0.0246 0.16097,-0.0246 0.22203,0 0.061,0.0246 0.0111,0.0448 -0.11102,0.0448 -0.12211,0 -0.17207,-0.0202 -0.11101,-0.0448 z m 2.96699,-0.11877 c 0,-0.12211 0.0202,-0.17207 0.0448,-0.11101 0.0246,0.0611 0.0246,0.16097 0,0.22203 -0.0246,0.0611 -0.0448,0.0111 -0.0448,-0.11102 z m 0.36511,0.11608 c 0.0864,-0.0225 0.20631,-0.021 0.26644,0.003 0.0601,0.0243 -0.0106,0.0428 -0.15711,0.0409 -0.14654,-0.002 -0.19573,-0.0217 -0.10933,-0.0442 z m 2.13147,0 c 0.0864,-0.0225 0.20631,-0.021 0.26644,0.003 0.0601,0.0243 -0.0106,0.0428 -0.15711,0.0409 -0.14654,-0.002 -0.19573,-0.0217 -0.10933,-0.0442 z m -40.24835,-0.16788 c 0.004,-0.10346 0.0253,-0.12451 0.0537,-0.0537 0.0257,0.0641 0.0225,0.14071 -0.007,0.17022 -0.0295,0.0295 -0.0505,-0.0229 -0.0466,-0.11656 z m 5.50629,0 c 0.004,-0.10346 0.0253,-0.12451 0.0537,-0.0537 0.0257,0.0641 0.0225,0.14071 -0.007,0.17022 -0.0295,0.0295 -0.0505,-0.0229 -0.0466,-0.11656 z m -13.88375,-0.18464 c 0.0611,-0.0246 0.16097,-0.0246 0.22203,0 0.0611,0.0246 0.0111,0.0448 -0.11102,0.0448 -0.12211,0 -0.17207,-0.0202 -0.11101,-0.0448 z m 6.03916,0 c 0.0611,-0.0246 0.16097,-0.0246 0.22203,0 0.0611,0.0246 0.0111,0.0448 -0.11102,0.0448 -0.12211,0 -0.17207,-0.0202 -0.11101,-0.0448 z m 5.32867,0 c 0.0611,-0.0246 0.16097,-0.0246 0.22203,0 0.0611,0.0246 0.0111,0.0448 -0.11101,0.0448 -0.12212,0 -0.17208,-0.0202 -0.11102,-0.0448 z m 3.37483,0 c 0.061,-0.0246 0.16097,-0.0246 0.22202,0 0.0611,0.0246 0.0111,0.0448 -0.11101,0.0448 -0.12211,0 -0.17207,-0.0202 -0.11101,-0.0448 z m 2.40345,-0.002 c 0.0641,-0.0257 0.14071,-0.0225 0.17022,0.007 0.0295,0.0295 -0.0229,0.0505 -0.11656,0.0466 -0.10347,-0.004 -0.12451,-0.0253 -0.0537,-0.0537 z m 0.97137,0.002 c 0.0611,-0.0246 0.16097,-0.0246 0.22203,0 0.0611,0.0246 0.0111,0.0448 -0.11101,0.0448 -0.12212,0 -0.17208,-0.0202 -0.11102,-0.0448 z m 12.52238,0 c 0.0611,-0.0246 0.16097,-0.0246 0.22203,0 0.0611,0.0246 0.0111,0.0448 -0.11102,0.0448 -0.12211,0 -0.17207,-0.0202 -0.11101,-0.0448 z m 7.72657,0 c 0.0611,-0.0246 0.16097,-0.0246 0.22203,0 0.0611,0.0246 0.0111,0.0448 -0.11101,0.0448 -0.12212,0 -0.17207,-0.0202 -0.11102,-0.0448 z m 2.88805,-0.003 c 0.0864,-0.0225 0.20631,-0.021 0.26644,0.003 0.0601,0.0243 -0.0106,0.0427 -0.15711,0.0409 -0.14654,-0.002 -0.19573,-0.0217 -0.10933,-0.0442 z m 2.00212,8.9e-4 c 0.0641,-0.0257 0.14071,-0.0225 0.17022,0.007 0.0295,0.0295 -0.023,0.0505 -0.11656,0.0466 -0.10347,-0.004 -0.12451,-0.0253 -0.0537,-0.0537 z m 3.36927,0.002 c 0.0611,-0.0246 0.16097,-0.0246 0.22203,0 0.0611,0.0246 0.0111,0.0448 -0.11101,0.0448 -0.12212,0 -0.17207,-0.0202 -0.11102,-0.0448 z m -46.13721,-0.34084 c 9.7e-4,-0.19538 0.0192,-0.26486 0.0404,-0.15438 0.0213,0.11047 0.0204,0.27033 -0.002,0.35524 -0.0222,0.0849 -0.0396,-0.005 -0.0386,-0.20086 z m 38.38412,-2.93077 c -3e-5,-1.75846 0.0118,-2.49042 0.0264,-1.62657 0.0145,0.86384 0.0146,2.30259 5e-5,3.1972 -0.0145,0.89462 -0.0264,0.18783 -0.0264,-1.57063 z m -16.48149,2.81976 c -0.11046,-0.14086 -0.10733,-0.144 0.0335,-0.0335 0.0855,0.067 0.15542,0.13697 0.15542,0.15542 0,0.0731 -0.0729,0.026 -0.18895,-0.12189 z m 5.78406,-0.15542 c 0.11472,-0.12212 0.22856,-0.22203 0.25299,-0.22203 0.0244,0 -0.0495,0.0999 -0.16418,0.22203 -0.11472,0.12211 -0.22856,0.22203 -0.25299,0.22203 -0.0244,0 0.0495,-0.0999 0.16418,-0.22203 z m -4.93461,-0.15542 -0.26085,-0.28864 0.28864,0.26085 c 0.26905,0.24314 0.32946,0.31642 0.26085,0.31642 -0.0153,0 -0.14517,-0.12988 -0.28864,-0.28863 z m 4.0909,0.11101 c 0.0884,-0.0977 0.18073,-0.17762 0.20516,-0.17762 0.0244,0 -0.0279,0.0799 -0.11635,0.17762 -0.0884,0.0977 -0.18073,0.17762 -0.20515,0.17762 -0.0244,0 0.0279,-0.0799 0.11634,-0.17762 z m 3.8703,0.037 c 0.004,-0.10346 0.0253,-0.12451 0.0537,-0.0537 0.0257,0.0641 0.0225,0.14071 -0.007,0.17022 -0.0295,0.0295 -0.0505,-0.0229 -0.0466,-0.11656 z m -29.73336,-0.43666 c 8.9e-4,-0.24423 0.0179,-0.3336 0.0383,-0.1986 0.0204,0.135 0.0199,0.33482 -0.001,0.44405 -0.0211,0.10924 -0.0378,-0.001 -0.0371,-0.24545 z m 13.76695,-0.0444 c 0,-0.26866 0.0166,-0.37856 0.037,-0.24423 0.0204,0.13432 0.0204,0.35413 0,0.48846 -0.0204,0.13432 -0.037,0.0244 -0.037,-0.24423 z m 6.7117,0.19982 c -0.11046,-0.14086 -0.10732,-0.144 0.0335,-0.0335 0.0855,0.067 0.15542,0.13698 0.15542,0.15542 0,0.0731 -0.0729,0.026 -0.18896,-0.12189 z m 17.89224,-0.73269 c 0,-0.36635 0.0157,-0.51622 0.0348,-0.33304 0.0192,0.18317 0.0192,0.48291 0,0.66608 -0.0192,0.18317 -0.0348,0.0333 -0.0348,-0.33304 z m -8.54872,0.21463 c 0.004,-0.10346 0.0253,-0.12451 0.0537,-0.0537 0.0257,0.0641 0.0225,0.14071 -0.007,0.17022 -0.0295,0.0295 -0.0505,-0.0229 -0.0466,-0.11656 z m 0.62869,-0.037 c 0,-0.12211 0.0202,-0.17207 0.0448,-0.11101 0.0246,0.0611 0.0246,0.16097 0,0.22203 -0.0246,0.061 -0.0448,0.0111 -0.0448,-0.11102 z m -11.7371,0.006 c 0,-0.0454 -0.0899,-0.1 -0.19982,-0.12112 -0.17133,-0.033 -0.165,-0.0402 0.0444,-0.0506 0.16326,-0.008 0.24423,0.0321 0.24423,0.12113 0,0.0733 -0.02,0.13321 -0.0444,0.13321 -0.0244,0 -0.0444,-0.0372 -0.0444,-0.0826 z m -3.96988,-0.53905 c 0,-0.26865 0.0166,-0.37855 0.037,-0.24423 0.0204,0.13433 0.0204,0.35414 0,0.48847 -0.0204,0.13432 -0.037,0.0244 -0.037,-0.24424 z m 15.1671,-0.22942 c 0.004,-0.10346 0.0253,-0.12451 0.0537,-0.0537 0.0257,0.0641 0.0225,0.14071 -0.007,0.17022 -0.0295,0.0295 -0.0505,-0.0229 -0.0466,-0.11656 z m 0.63198,-0.34785 c 0.002,-0.14654 0.0217,-0.19573 0.0442,-0.10932 0.0225,0.0864 0.021,0.2063 -0.003,0.26643 -0.0243,0.0601 -0.0427,-0.0106 -0.0409,-0.15711 z m -31.42895,-0.44405 c 8.9e-4,-0.29308 0.0171,-0.40227 0.0368,-0.24264 0.0198,0.15962 0.0194,0.39941 -8.9e-4,0.53286 -0.0203,0.13345 -0.0364,0.003 -0.0359,-0.29022 z m 8.16531,0.42724 c 0.0855,-0.0223 0.22536,-0.0223 0.31084,0 0.0855,0.0223 0.0155,0.0406 -0.15542,0.0406 -0.17096,0 -0.2409,-0.0183 -0.15542,-0.0406 z m 35.25973,-3.6e-4 c 0.0864,-0.0225 0.20631,-0.021 0.26643,0.003 0.0601,0.0243 -0.0106,0.0428 -0.1571,0.0409 -0.14654,-0.002 -0.19573,-0.0217 -0.10933,-0.0442 z m -12.53926,-0.43432 c 0.004,-0.10346 0.0253,-0.1245 0.0537,-0.0537 0.0257,0.0641 0.0225,0.14071 -0.007,0.17022 -0.0295,0.0295 -0.0505,-0.0229 -0.0466,-0.11657 z m -29.90886,-0.43662 c 8.9e-4,-0.29308 0.0171,-0.40227 0.0368,-0.24264 0.0198,0.15962 0.0194,0.39941 -8.8e-4,0.53287 -0.0203,0.13345 -0.0364,0.003 -0.0359,-0.29023 z m 26.80047,0.34784 c 0.004,-0.10346 0.0253,-0.1245 0.0537,-0.0537 0.0257,0.0641 0.0225,0.14071 -0.007,0.17022 -0.0295,0.0295 -0.0505,-0.0229 -0.0466,-0.11657 z m -13.03685,-0.43665 c 8.8e-4,-0.24423 0.0179,-0.3336 0.0383,-0.19861 0.0204,0.135 0.0199,0.33483 -0.001,0.44406 -0.0211,0.10923 -0.0378,-0.001 -0.0371,-0.24545 z m -12.7032,0.24723 c 0.13433,-0.0204 0.35413,-0.0204 0.48846,0 0.13433,0.0203 0.0244,0.037 -0.24423,0.037 -0.26865,0 -0.37856,-0.0166 -0.24423,-0.037 z m -0.36343,-0.20283 c 0,-0.12211 0.0202,-0.17207 0.0448,-0.11101 0.0246,0.0611 0.0246,0.16097 0,0.22203 -0.0246,0.0611 -0.0448,0.0111 -0.0448,-0.11102 z m 27.25802,0.037 c 0.004,-0.10346 0.0253,-0.12451 0.0537,-0.0537 0.0257,0.0641 0.0225,0.14071 -0.007,0.17022 -0.0295,0.0295 -0.0505,-0.0229 -0.0466,-0.11656 z m -7.43728,-0.65868 c 0,-0.36635 0.0157,-0.51622 0.0348,-0.33305 0.0191,0.18318 0.0191,0.48291 0,0.66609 -0.0192,0.18317 -0.0348,0.0333 -0.0348,-0.33304 z m 10.02311,0.39965 c 0.002,-0.14654 0.0217,-0.19574 0.0442,-0.10933 0.0225,0.0864 0.021,0.20631 -0.003,0.26644 -0.0243,0.0601 -0.0427,-0.0106 -0.0409,-0.15711 z m -11.18691,-0.13322 c 0,-0.17096 0.0183,-0.2409 0.0406,-0.15542 0.0223,0.0855 0.0223,0.22536 0,0.31084 -0.0223,0.0855 -0.0406,0.0155 -0.0406,-0.15542 z m 10.64374,0.037 c 0.004,-0.10346 0.0253,-0.1245 0.0537,-0.0537 0.0257,0.0641 0.0225,0.14071 -0.007,0.17022 -0.0295,0.0295 -0.0505,-0.0229 -0.0467,-0.11657 z m -15.25713,-0.61427 c 8.9e-4,-0.24423 0.0179,-0.33361 0.0383,-0.19861 0.0204,0.135 0.0199,0.33483 -0.001,0.44406 -0.0211,0.10923 -0.0378,-0.001 -0.0371,-0.24545 z m 12.05993,0.0814 c 0.004,-0.10346 0.0253,-0.12451 0.0537,-0.0537 0.0257,0.0641 0.0225,0.14071 -0.007,0.17022 -0.0295,0.0295 -0.0505,-0.0229 -0.0466,-0.11656 z m 3.29303,-0.30344 c 0,-0.12212 0.0202,-0.17207 0.0448,-0.11102 0.0246,0.0611 0.0246,0.16097 0,0.22203 -0.0246,0.0611 -0.0448,0.0111 -0.0448,-0.11101 z m 8.09765,-0.53287 c 0,-0.36634 0.0157,-0.51621 0.0348,-0.33304 0.0192,0.18317 0.0192,0.48291 0,0.66608 -0.0192,0.18318 -0.0348,0.0333 -0.0348,-0.33304 z m -7.56478,0.35525 c 0,-0.12212 0.0202,-0.17208 0.0448,-0.11102 0.0246,0.0611 0.0246,0.16097 0,0.22203 -0.0246,0.0611 -0.0448,0.0111 -0.0448,-0.11101 z m -31.51448,-0.66609 c 8.9e-4,-0.29307 0.0171,-0.40226 0.0368,-0.24264 0.0198,0.15963 0.0194,0.39942 -8.9e-4,0.53287 -0.0203,0.13345 -0.0364,0.003 -0.0359,-0.29023 z m 31.07042,0.0444 c 0,-0.12212 0.0202,-0.17207 0.0448,-0.11102 0.0246,0.0611 0.0246,0.16097 0,0.22203 -0.0246,0.0611 -0.0448,0.0111 -0.0448,-0.11101 z m -27.07604,-0.39965 c 8.9e-4,-0.24423 0.0179,-0.3336 0.0383,-0.19861 0.0204,0.135 0.0199,0.33483 -10e-4,0.44406 -0.0211,0.10923 -0.0378,-10e-4 -0.0371,-0.24545 z m 0.97693,-0.0888 c 8.8e-4,-0.24423 0.0179,-0.33361 0.0383,-0.19861 0.0204,0.135 0.0199,0.33483 -0.001,0.44406 -0.0211,0.10923 -0.0378,-0.001 -0.0371,-0.24545 z m -3.99438,-0.17763 c 8.8e-4,-0.29307 0.0171,-0.40226 0.0368,-0.24264 0.0198,0.15963 0.0194,0.39942 -8.8e-4,0.53287 -0.0203,0.13345 -0.0364,0.003 -0.0359,-0.29023 z m 30.62964,0.17763 c 0.002,-0.14654 0.0217,-0.19574 0.0442,-0.10933 0.0225,0.0864 0.021,0.20631 -0.003,0.26644 -0.0243,0.0601 -0.0427,-0.0106 -0.0409,-0.15711 z m -16.86229,-0.44406 c 0,-0.34192 0.0164,-0.47092 0.0357,-0.28666 0.0192,0.18427 0.0189,0.46402 -8.9e-4,0.62168 -0.0196,0.15766 -0.0353,0.007 -0.035,-0.33502 z m 16.41495,0.13322 c 0,-0.12212 0.0202,-0.17207 0.0448,-0.11102 0.0246,0.0611 0.0246,0.16097 0,0.22203 -0.0246,0.0611 -0.0448,0.0111 -0.0448,-0.11101 z m -15.44055,-0.62168 c 0,-0.26865 0.0166,-0.37856 0.037,-0.24423 0.0203,0.13433 0.0203,0.35413 0,0.48846 -0.0204,0.13433 -0.037,0.0244 -0.037,-0.24423 z m 28.74821,0.0941 c 0,-0.0711 -0.0578,-0.0911 -0.15542,-0.054 -0.12461,0.0474 -0.13342,0.037 -0.0444,-0.0527 0.0855,-0.0861 0.13519,-0.0877 0.21611,-0.007 0.0578,0.0578 0.0778,0.1324 0.0444,0.16578 -0.0334,0.0334 -0.0607,0.01 -0.0607,-0.0524 z m -35.34686,-0.0941 c -0.08,-0.0517 -0.091,-0.0866 -0.0274,-0.0875 0.0582,-7.1e-4 0.13047,0.0386 0.16066,0.0875 0.0681,0.11026 0.0374,0.11026 -0.13322,0 z m 12.38916,-0.26643 c 0.19079,-0.19539 0.36687,-0.35525 0.3913,-0.35525 0.0244,0 -0.1117,0.15986 -0.30249,0.35525 -0.19078,0.19538 -0.36687,0.35524 -0.39129,0.35524 -0.0244,0 0.1117,-0.15986 0.30248,-0.35524 z m 9.73885,0.0888 c 0,-0.12212 0.0202,-0.17208 0.0448,-0.11102 0.0246,0.0611 0.0246,0.16097 0,0.22203 -0.0246,0.0611 -0.0448,0.0111 -0.0448,-0.11101 z m -8.85073,-0.0888 c 0.0884,-0.0977 0.18073,-0.17763 0.20515,-0.17763 0.0244,0 -0.0279,0.0799 -0.11634,0.17763 -0.0884,0.0977 -0.18073,0.17762 -0.20516,0.17762 -0.0244,0 0.0279,-0.0799 0.11635,-0.17762 z m -7.66815,-0.0888 c 0,-0.12211 0.0202,-0.17207 0.0448,-0.11101 0.0246,0.0611 0.0246,0.16097 0,0.22203 -0.0246,0.0611 -0.0448,0.0111 -0.0448,-0.11102 z m -11.30438,-0.15542 c -0.11046,-0.14086 -0.10732,-0.144 0.0335,-0.0335 0.0855,0.067 0.15542,0.13698 0.15542,0.15542 0,0.0731 -0.0729,0.026 -0.18896,-0.12189 z m 24.15665,0 c -0.11047,-0.14086 -0.10733,-0.144 0.0335,-0.0335 0.0855,0.067 0.15542,0.13698 0.15542,0.15542 0,0.0731 -0.0729,0.026 -0.18895,-0.12189 z m -13.05525,-0.35524 c -0.11046,-0.14086 -0.10733,-0.144 0.0335,-0.0335 0.0855,0.067 0.15542,0.13698 0.15542,0.15542 0,0.0731 -0.0729,0.026 -0.18896,-0.12189 z m 16.80366,-0.16282 c 0.004,-0.10346 0.0253,-0.1245 0.0537,-0.0537 0.0256,0.0641 0.0225,0.14071 -0.007,0.17022 -0.0295,0.0295 -0.0505,-0.0229 -0.0466,-0.11656 z m -15.12711,-0.007 c 0.0611,-0.0246 0.16097,-0.0246 0.22202,0 0.0611,0.0246 0.0111,0.0448 -0.11101,0.0448 -0.12212,0 -0.17207,-0.0202 -0.11101,-0.0448 z m 0.48028,-0.20762 c 0,-0.12211 0.0202,-0.17207 0.0448,-0.11101 0.0246,0.0611 0.0246,0.16097 0,0.22203 -0.0246,0.061 -0.0448,0.0111 -0.0448,-0.11102 z m 7.51827,0.11696 c 0.0641,-0.0257 0.14072,-0.0225 0.17023,0.007 0.0295,0.0295 -0.023,0.0505 -0.11657,0.0466 -0.10346,-0.004 -0.1245,-0.0253 -0.0537,-0.0537 z m 0.71049,0 c 0.0641,-0.0257 0.14071,-0.0225 0.17023,0.007 0.0295,0.0295 -0.023,0.0505 -0.11657,0.0466 -0.10346,-0.004 -0.1245,-0.0253 -0.0537,-0.0537 z m 14.02309,-0.29458 c -0.0256,-0.0977 -0.0102,-0.17762 0.0341,-0.17762 0.0443,0 0.0805,0.0799 0.0805,0.17762 0,0.0977 -0.0153,0.17762 -0.0341,0.17762 -0.0187,0 -0.0549,-0.0799 -0.0805,-0.17762 z m -39.60071,0.0281 c 0.0641,-0.0256 0.14071,-0.0225 0.17022,0.007 0.0295,0.0295 -0.0229,0.0505 -0.11656,0.0466 -0.10347,-0.004 -0.1245,-0.0253 -0.0537,-0.0537 z m 1.68741,0 c 0.0641,-0.0256 0.14071,-0.0225 0.17023,0.007 0.0295,0.0295 -0.0229,0.0505 -0.11657,0.0466 -0.10346,-0.004 -0.1245,-0.0253 -0.0537,-0.0537 z m 15.26998,0.002 c 0.061,-0.0246 0.16097,-0.0246 0.22202,0 0.0611,0.0246 0.0111,0.0448 -0.11101,0.0448 -0.12212,0 -0.17207,-0.0202 -0.11101,-0.0448 z m 22.1125,-0.041 c 0.0602,-0.0607 0.13191,-0.088 0.15926,-0.0606 0.0273,0.0273 -0.022,0.077 -0.10954,0.11035 -0.12658,0.0482 -0.13677,0.038 -0.0497,-0.0497 z m -36.45551,-0.0526 c 0.13433,-0.0204 0.35413,-0.0204 0.48846,0 0.13433,0.0203 0.0244,0.037 -0.24423,0.037 -0.26865,0 -0.37856,-0.0167 -0.24423,-0.037 z m 22.38211,-0.0867 c 0.0864,-0.0225 0.2063,-0.021 0.26643,0.003 0.0601,0.0243 -0.0106,0.0427 -0.15711,0.0409 -0.14654,-0.002 -0.19573,-0.0217 -0.10932,-0.0442 z m 0.93083,0.003 c 0.0611,-0.0246 0.16097,-0.0246 0.22202,0 0.0611,0.0246 0.0111,0.0448 -0.11101,0.0448 -0.12211,0 -0.17207,-0.0202 -0.11101,-0.0448 z m -52.659488,-2.22213 c 0.06411,-0.0257 0.14071,-0.0225 0.170221,0.007 0.02951,0.0295 -0.02294,0.0505 -0.116564,0.0466 -0.103461,-0.004 -0.124505,-0.0253 -0.05366,-0.0537 z m -14.790924,-0.0897 c 0.08641,-0.0225 0.206306,-0.021 0.266433,0.003 0.06013,0.0243 -0.01057,0.0427 -0.157109,0.0409 -0.146539,-0.002 -0.195735,-0.0217 -0.109324,-0.0442 z m 0.847567,8.9e-4 c 0.06411,-0.0257 0.14071,-0.0225 0.170221,0.007 0.02951,0.0295 -0.02294,0.0505 -0.116564,0.0466 -0.103461,-0.004 -0.124505,-0.0253 -0.05366,-0.0536 z m 7.054939,-5.3e-4 c 0.08548,-0.0223 0.225358,-0.0223 0.310839,0 0.08548,0.0223 0.01554,0.0406 -0.15542,0.0406 -0.170961,0 -0.2409,-0.0183 -0.155419,-0.0406 z m -25.444406,-0.0864 c 0.06106,-0.0246 0.16097,-0.0246 0.222028,0 0.06106,0.0246 0.0111,0.0448 -0.111014,0.0448 -0.122116,0 -0.172072,-0.0202 -0.111014,-0.0448 z m 2.22583,-0.002 c 0.06411,-0.0256 0.140711,-0.0225 0.170222,0.007 0.02951,0.0295 -0.02294,0.0505 -0.116565,0.0466 -0.10346,-0.004 -0.124504,-0.0253 -0.05366,-0.0537 z m 3.990953,0.002 c 0.06106,-0.0246 0.16097,-0.0246 0.222028,0 0.06106,0.0246 0.0111,0.0448 -0.111014,0.0448 -0.122115,0 -0.172072,-0.0202 -0.111014,-0.0448 z m 2.042657,0 c 0.06106,-0.0246 0.160971,-0.0246 0.222028,0 0.06106,0.0246 0.0111,0.0448 -0.111014,0.0448 -0.122115,0 -0.172071,-0.0202 -0.111014,-0.0448 z m 2.966995,-0.11884 c 0,-0.12211 0.02016,-0.17207 0.0448,-0.11101 0.02464,0.0611 0.02464,0.16097 0,0.22203 -0.02464,0.0611 -0.0448,0.0111 -0.0448,-0.11102 z m 0.365115,0.11608 c 0.08641,-0.0225 0.206306,-0.021 0.266434,0.003 0.06013,0.0243 -0.01057,0.0428 -0.15711,0.0409 -0.146538,-0.002 -0.195735,-0.0217 -0.109324,-0.0442 z m 2.174184,0.003 c 0.06106,-0.0246 0.16097,-0.0246 0.222028,0 0.06106,0.0246 0.0111,0.0448 -0.111014,0.0448 -0.122115,0 -0.172072,-0.0202 -0.111014,-0.0448 z m 0.835526,-0.11881 c 0,-0.12211 0.02016,-0.17207 0.0448,-0.11101 0.02464,0.0611 0.02464,0.16097 0,0.22203 -0.02464,0.0611 -0.0448,0.0111 -0.0448,-0.11102 z m 0.365115,0.11608 c 0.08641,-0.0225 0.206306,-0.021 0.266434,0.003 0.06013,0.0243 -0.01057,0.0428 -0.15711,0.0409 -0.146538,-0.002 -0.195734,-0.0217 -0.109324,-0.0442 z m 1.646868,8.9e-4 c 0.06411,-0.0257 0.140711,-0.0225 0.170222,0.007 0.02951,0.0295 -0.02294,0.0505 -0.116565,0.0466 -0.103461,-0.004 -0.124504,-0.0253 -0.05366,-0.0537 z m 5.458027,-8.9e-4 c 0.08641,-0.0225 0.206306,-0.021 0.266434,0.003 0.06013,0.0243 -0.01057,0.0428 -0.15711,0.0409 -0.146538,-0.002 -0.195734,-0.0217 -0.109324,-0.0442 z m 1.863345,3.6e-4 c 0.08548,-0.0223 0.225359,-0.0223 0.31084,0 0.08548,0.0223 0.01554,0.0406 -0.15542,0.0406 -0.170962,0 -0.2409,-0.0183 -0.15542,-0.0406 z m -6.610883,-0.26588 c 0.06411,-0.0257 0.140711,-0.0225 0.170222,0.007 0.02951,0.0295 -0.02294,0.0505 -0.116565,0.0466 -0.10346,-0.004 -0.124504,-0.0253 -0.05366,-0.0537 z m 15.275525,0 c 0.06411,-0.0257 0.140711,-0.0225 0.170222,0.007 0.02951,0.0295 -0.02294,0.0505 -0.116565,0.0466 -0.10346,-0.004 -0.124504,-0.0253 -0.05366,-0.0537 z m -32.510446,-0.087 c 0.06106,-0.0246 0.16097,-0.0246 0.222028,0 0.06106,0.0246 0.0111,0.0448 -0.111014,0.0448 -0.122116,0 -0.172072,-0.0202 -0.111014,-0.0448 z m 6.127972,0 c 0.06106,-0.0246 0.16097,-0.0246 0.222028,0 0.06106,0.0246 0.0111,0.0448 -0.111014,0.0448 -0.122115,0 -0.172072,-0.0202 -0.111014,-0.0448 z m 2.137019,-0.002 c 0.06411,-0.0257 0.140711,-0.0225 0.170222,0.007 0.02951,0.0295 -0.02294,0.0505 -0.116565,0.0466 -0.10346,-0.004 -0.124504,-0.0253 -0.05366,-0.0537 z m 3.280464,0.002 c 0.06106,-0.0246 0.16097,-0.0246 0.222028,0 0.06106,0.0246 0.0111,0.0448 -0.111014,0.0448 -0.122116,0 -0.172072,-0.0202 -0.111014,-0.0448 z m 3.374825,0 c 0.06106,-0.0246 0.16097,-0.0246 0.222028,0 0.06106,0.0246 0.0111,0.0448 -0.111014,0.0448 -0.122116,0 -0.172072,-0.0202 -0.111014,-0.0448 z m 7.193706,0 c 0.06106,-0.0246 0.16097,-0.0246 0.222028,0 0.06106,0.0246 0.0111,0.0448 -0.111014,0.0448 -0.122115,0 -0.172072,-0.0202 -0.111014,-0.0448 z m 2.62162,-0.003 c 0.08641,-0.0225 0.206306,-0.021 0.266434,0.003 0.06013,0.0243 -0.01057,0.0427 -0.15711,0.0409 -0.146538,-0.002 -0.195734,-0.0217 -0.109324,-0.0442 z m 0.842017,0.003 c 0.06106,-0.0246 0.16097,-0.0246 0.222028,0 0.06106,0.0246 0.0111,0.0448 -0.111014,0.0448 -0.122116,0 -0.172072,-0.0202 -0.111014,-0.0448 z m -24.998365,-0.38523 c 0,-0.21981 0.01732,-0.30973 0.03849,-0.19983 0.02117,0.1099 0.02117,0.28975 0,0.39965 -0.02117,0.1099 -0.03849,0.02 -0.03849,-0.19982 z m 12.753294,0.11101 c -0.110469,-0.14086 -0.107328,-0.144 0.03353,-0.0335 0.08548,0.067 0.15542,0.13698 0.15542,0.15542 0,0.0731 -0.07293,0.0261 -0.188952,-0.12189 z m 5.784057,-0.0557 c 0,-0.0185 0.06994,-0.0884 0.155419,-0.15542 0.14086,-0.11047 0.144001,-0.10733 0.03353,0.0335 -0.116021,0.14793 -0.188951,0.19498 -0.188951,0.12189 z m 10.60735,-0.34392 -0.260847,-0.28864 0.288637,0.26085 c 0.269049,0.24315 0.329458,0.31643 0.260846,0.31643 -0.01528,0 -0.145171,-0.12989 -0.288636,-0.28864 z m -14.221089,-0.2895 c 5.33e-4,-0.29307 0.01708,-0.40226 0.03684,-0.24264 0.01977,0.15963 0.01936,0.39942 -9.06e-4,0.53287 -0.02026,0.13345 -0.03644,0.003 -0.03594,-0.29023 z m 20.221431,0.45493 c 0,-0.0184 0.06994,-0.0884 0.15542,-0.15542 0.14086,-0.11047 0.144001,-0.10732 0.03353,0.0335 -0.11602,0.14793 -0.188951,0.19498 -0.188951,0.12188 z m -27.968513,-0.19589 c 0.0043,-0.10346 0.02531,-0.12451 0.05366,-0.0537 0.02566,0.0641 0.0225,0.14071 -0.007,0.17022 -0.02951,0.0295 -0.0505,-0.0229 -0.04665,-0.11656 z m 8.725627,-0.52547 c 3.56e-4,-0.34192 0.01645,-0.47092 0.03567,-0.28666 0.01923,0.18427 0.0189,0.46402 -7.1e-4,0.62168 -0.01962,0.15766 -0.03535,0.007 -0.03495,-0.33502 z m 6.214254,0.13322 c 0,-0.26866 0.01665,-0.37856 0.037,-0.24423 0.02035,0.13432 0.02035,0.35413 0,0.48846 -0.02035,0.13432 -0.037,0.0244 -0.037,-0.24423 z m 0.978736,-0.44406 c 0,-0.3175 0.01612,-0.44739 0.03582,-0.28864 0.0197,0.15875 0.0197,0.41853 0,0.57728 -0.0197,0.15875 -0.03582,0.0289 -0.03582,-0.28864 z m -15.14298,-1.03759 c 0.06411,-0.0257 0.14071,-0.0225 0.170222,0.007 0.02951,0.0295 -0.02294,0.0505 -0.116565,0.0466 -0.103461,-0.004 -0.124505,-0.0253 -0.05366,-0.0537 z m -7.860931,-0.4722 c 0,-0.26865 0.01665,-0.37856 0.037,-0.24423 0.02035,0.13433 0.02035,0.35413 0,0.48846 -0.02035,0.13433 -0.037,0.0244 -0.037,-0.24423 z m 9.143142,0.38045 c 0.134327,-0.0204 0.354135,-0.0204 0.488462,0 0.134327,0.0203 0.02442,0.037 -0.244231,0.037 -0.268654,0 -0.378558,-0.0166 -0.244231,-0.037 z m -8.166219,-0.46926 c 0,-0.26865 0.01665,-0.37856 0.037,-0.24423 0.02035,0.13433 0.02035,0.35413 0,0.48846 -0.02035,0.13433 -0.037,0.0244 -0.037,-0.24423 z m 34.350329,0.037 c 0.0043,-0.10346 0.02531,-0.1245 0.05366,-0.0536 0.02566,0.0641 0.0225,0.14071 -0.007,0.17022 -0.02951,0.0295 -0.0505,-0.0229 -0.04664,-0.11657 z m -26.712917,-0.0143 c 0.380789,-0.0167 0.980265,-0.0166 1.332168,2.7e-4 0.351902,0.0168 0.04035,0.0305 -0.692347,0.0303 -0.732692,-9e-5 -1.020612,-0.0139 -0.639821,-0.0306 z m 6.306852,-0.51118 c 5.33e-4,-0.29308 0.01708,-0.40227 0.03684,-0.24264 0.01977,0.15962 0.01936,0.39941 -9.06e-4,0.53286 -0.02027,0.13346 -0.03644,0.003 -0.03594,-0.29022 z m 7.192799,0.0444 c 0,-0.26865 0.01665,-0.37855 0.037,-0.24423 0.02035,0.13433 0.02035,0.35414 0,0.48846 -0.02035,0.13433 -0.037,0.0244 -0.037,-0.24423 z m -19.315293,0.20577 c 0.06411,-0.0257 0.140711,-0.0225 0.170222,0.007 0.02951,0.0295 -0.02294,0.0505 -0.116565,0.0466 -0.103461,-0.004 -0.124504,-0.0253 -0.05366,-0.0537 z m 13.094293,-0.42779 c 9.86e-4,-0.19539 0.01917,-0.26486 0.04042,-0.15439 0.02124,0.11047 0.02044,0.27033 -0.0018,0.35525 -0.02223,0.0849 -0.03961,-0.005 -0.03862,-0.20086 z m 11.905823,-0.17763 c 5.33e-4,-0.29307 0.01708,-0.40226 0.03684,-0.24264 0.01976,0.15963 0.01936,0.39942 -9.06e-4,0.53287 -0.02027,0.13345 -0.03644,0.003 -0.03594,-0.29023 z m 1.156168,-0.17762 c 3.56e-4,-0.34192 0.01645,-0.47092 0.03567,-0.28666 0.01922,0.18427 0.0189,0.46402 -7.1e-4,0.62168 -0.01962,0.15766 -0.03535,0.007 -0.03496,-0.33502 z m -26.91504,0.42692 c 0.08641,-0.0225 0.206306,-0.021 0.266434,0.003 0.06013,0.0243 -0.01057,0.0428 -0.15711,0.0409 -0.146538,-0.002 -0.195734,-0.0217 -0.109324,-0.0442 z m 21.050973,-0.38251 c 0,-0.26866 0.01665,-0.37856 0.037,-0.24423 0.02035,0.13432 0.02035,0.35413 0,0.48846 -0.02035,0.13432 -0.037,0.0244 -0.037,-0.24423 z m -6.709656,-0.0627 c 0.109904,-0.0212 0.289747,-0.0212 0.399651,0 0.109904,0.0212 0.01998,0.0385 -0.199825,0.0385 -0.219808,0 -0.309729,-0.0173 -0.199826,-0.0385 z m 18.953009,-0.29257 c 0,-0.12211 0.02016,-0.17207 0.0448,-0.11101 0.02464,0.061 0.02464,0.16097 0,0.22203 -0.02464,0.0611 -0.0448,0.0111 -0.0448,-0.11102 z m -18.32578,-0.0607 c 0.06411,-0.0257 0.140711,-0.0225 0.170222,0.007 0.02951,0.0295 -0.02294,0.0505 -0.116565,0.0466 -0.10346,-0.004 -0.124504,-0.0253 -0.05366,-0.0537 z m -16.919672,-1.00506 c 0,-0.26866 0.01665,-0.37856 0.037,-0.24423 0.02035,0.13432 0.02035,0.35413 0,0.48846 -0.02035,0.13432 -0.037,0.0244 -0.037,-0.24423 z m 0.97783,-0.22203 c 5.33e-4,-0.29308 0.01708,-0.40227 0.03684,-0.24264 0.01977,0.15962 0.01936,0.39941 -9.05e-4,0.53287 -0.02027,0.13345 -0.03644,0.003 -0.03594,-0.29023 z m 4.075109,-0.26643 c 0.0018,-0.14654 0.02171,-0.19574 0.04423,-0.10933 0.02252,0.0864 0.02104,0.20631 -0.0033,0.26643 -0.02433,0.0601 -0.04275,-0.0106 -0.04094,-0.1571 z m 9.866129,-0.17763 c 7.1e-4,-0.24423 0.01792,-0.3336 0.03833,-0.1986 0.02041,0.135 0.01987,0.33482 -0.0012,0.44405 -0.02108,0.10924 -0.03778,-0.001 -0.03712,-0.24545 z m 7.196731,-0.22203 c 0,-0.3175 0.01612,-0.44738 0.03582,-0.28863 0.0197,0.15875 0.0197,0.41852 0,0.57727 -0.0197,0.15875 -0.03582,0.0289 -0.03582,-0.28864 z m -6.224605,0 c 0,-0.17096 0.01828,-0.2409 0.04062,-0.15541 0.02234,0.0855 0.02234,0.22535 0,0.31083 -0.02234,0.0855 -0.04062,0.0156 -0.04062,-0.15542 z m 7.198503,-0.13321 c 7.11e-4,-0.24423 0.01792,-0.3336 0.03833,-0.19861 0.02041,0.135 0.01987,0.33483 -0.0012,0.44406 -0.02108,0.10923 -0.03778,-0.001 -0.03712,-0.24545 z m -13.702324,-0.30554 c 0,-0.0711 -0.05778,-0.0911 -0.155419,-0.054 -0.124616,0.0474 -0.133417,0.037 -0.04441,-0.0527 0.08548,-0.0861 0.13519,-0.0877 0.216107,-0.007 0.0578,0.0578 0.07778,0.1324 0.04441,0.16578 -0.03338,0.0334 -0.06069,0.01 -0.06069,-0.0524 z m 20.47098,-0.36055 c 0.08841,-0.0977 0.180729,-0.17762 0.205152,-0.17762 0.02442,0 -0.02793,0.0799 -0.116341,0.17762 -0.08841,0.0977 -0.180729,0.17763 -0.205152,0.17763 -0.02442,0 0.02793,-0.0799 0.116341,-0.17763 z m -7.763968,-0.14061 c 0.0043,-0.10346 0.02531,-0.12451 0.05366,-0.0537 0.02566,0.0641 0.0225,0.14071 -0.007,0.17022 -0.02951,0.0295 -0.0505,-0.0229 -0.04664,-0.11656 z m -6.11767,-0.25904 c 0.0018,-0.14653 0.02171,-0.19573 0.04423,-0.10932 0.02252,0.0864 0.02104,0.20631 -0.0033,0.26643 -0.02433,0.0601 -0.04275,-0.0106 -0.04094,-0.15711 z m 13.215554,0.1885 c 0,-0.0184 0.06994,-0.0884 0.155419,-0.15542 0.14086,-0.11047 0.144001,-0.10733 0.03353,0.0335 -0.11602,0.14794 -0.188951,0.19499 -0.188951,0.12189 z m 5.672587,-0.29951 c -0.110469,-0.14086 -0.107328,-0.144 0.03353,-0.0335 0.147937,0.11602 0.194983,0.18895 0.121888,0.18895 -0.01844,0 -0.08838,-0.0699 -0.15542,-0.15542 z m -11.64514,-0.25864 c 0.06106,-0.0246 0.16097,-0.0246 0.222028,0 0.06106,0.0246 0.0111,0.0448 -0.111014,0.0448 -0.122115,0 -0.172072,-0.0202 -0.111014,-0.0448 z m -21.580083,-0.0928 c 0.110473,-0.0212 0.270333,-0.0204 0.355244,0.002 0.08491,0.0222 -0.0055,0.0396 -0.20086,0.0386 -0.195385,-9.9e-4 -0.264858,-0.0192 -0.154384,-0.0404 z m 12.379945,-0.11481 c 0,-0.12211 0.02016,-0.17207 0.04479,-0.11101 0.02464,0.061 0.02464,0.16097 0,0.22203 -0.02464,0.061 -0.04479,0.0111 -0.04479,-0.11102 z m 2.450488,0.11495 c 0.109904,-0.0212 0.289746,-0.0212 0.39965,0 0.109904,0.0212 0.01998,0.0385 -0.199825,0.0385 -0.219808,0 -0.309729,-0.0173 -0.199825,-0.0385 z m 4.736207,-0.16676 c 0.0043,-0.10346 0.02531,-0.1245 0.05366,-0.0537 0.02566,0.0641 0.0225,0.14071 -0.007,0.17022 -0.02951,0.0295 -0.0505,-0.0229 -0.04664,-0.11657 z m -21.564238,-0.0986 c 0.08641,-0.0225 0.206306,-0.021 0.266434,0.003 0.06013,0.0243 -0.01057,0.0427 -0.15711,0.0409 -0.146538,-0.002 -0.195734,-0.0217 -0.109324,-0.0442 z m 1.114001,8.9e-4 c 0.06411,-0.0256 0.14071,-0.0225 0.170222,0.007 0.02951,0.0295 -0.02294,0.0505 -0.116565,0.0466 -0.103461,-0.004 -0.124505,-0.0253 -0.05366,-0.0537 z m 13.760184,0.002 c 0.06106,-0.0246 0.16097,-0.0246 0.222028,0 0.06106,0.0246 0.0111,0.0448 -0.111014,0.0448 -0.122116,0 -0.172072,-0.0202 -0.111014,-0.0448 z m 1.160096,-0.002 c 0.06411,-0.0256 0.14071,-0.0225 0.170221,0.007 0.02951,0.0295 -0.02294,0.0505 -0.116564,0.0466 -0.103461,-0.004 -0.124505,-0.0253 -0.05366,-0.0537 z m 6.03361,0.002 c 0.06106,-0.0246 0.16097,-0.0246 0.222028,0 0.06106,0.0246 0.0111,0.0448 -0.111014,0.0448 -0.122115,0 -0.172072,-0.0202 -0.111014,-0.0448 z m 1.376573,-0.002 c 0.08548,-0.0223 0.225359,-0.0223 0.31084,0 0.08548,0.0223 0.01554,0.0406 -0.15542,0.0406 -0.170962,0 -0.2409,-0.0183 -0.15542,-0.0406 z m -21.619974,-0.0883 c 0.06411,-0.0256 0.140711,-0.0225 0.170222,0.007 0.02951,0.0295 -0.02294,0.0505 -0.116565,0.0466 -0.10346,-0.004 -0.124504,-0.0253 -0.05366,-0.0537 z m 14.92028,0 c 0.06411,-0.0256 0.140711,-0.0225 0.170222,0.007 0.02951,0.0295 -0.02294,0.0505 -0.116565,0.0466 -0.10346,-0.004 -0.124504,-0.0253 -0.05366,-0.0537 z m 15.097903,-0.0888 c 0.06411,-0.0256 0.14071,-0.0225 0.170221,0.007 0.02951,0.0295 -0.02294,0.0505 -0.116564,0.0466 -0.103461,-0.004 -0.124505,-0.0253 -0.05366,-0.0537 z m 4.990078,-12.46662 c -14.971346,-0.0318 -32.126338,-0.0637 -38.122203,-0.0709 l -10.901574,-0.013 v -0.35525 -0.35524 h 6.383108 6.383108 l 0.921613,-0.30132 c 1.606959,-0.52539 2.709044,-0.71542 4.163221,-0.71785 l 1.287762,-0.002 0.954016,0.51066 c 0.713403,0.38187 1.04522,0.51067 1.315637,0.51067 h 0.361622 l -0.374871,-0.53442 c -0.519644,-0.7408 -1.619307,-1.76416 -2.256404,-2.09984 -0.839823,-0.44249 -1.484838,-0.59862 -2.442308,-0.5912 -0.972923,0.008 -1.788139,0.1837 -3.818881,0.82523 -2.385395,0.75357 -3.447826,0.94126 -4.55253,0.80426 -0.652905,-0.081 -1.575442,-0.34369 -1.575442,-0.44866 0,-0.1306 1.137825,-1.12782 1.754945,-1.53808 0.828116,-0.55053 2.303333,-1.24741 3.111164,-1.4697 0.356166,-0.098 1.038874,-0.22367 1.517127,-0.27927 0.844341,-0.0982 0.889617,-0.0942 1.561775,0.13783 0.380723,0.13141 1.036845,0.39892 1.458047,0.59447 0.867024,0.40252 2.139676,0.95812 2.194672,0.95812 0.251551,0 -0.965295,-1.28366 -1.828499,-1.92889 -1.391436,-1.04009 -2.71652,-1.43675 -6.161436,-1.84444 -1.676422,-0.1984 -2.765651,-0.48708 -3.829823,-1.01504 -0.992137,-0.49221 -2.378887,-1.54182 -2.335401,-1.76762 0.01567,-0.0814 0.197341,-0.19138 0.426451,-0.25828 0.404952,-0.11824 4.469715,-0.41841 5.283775,-0.39019 1.148074,0.0398 2.023037,0.54705 3.401335,1.97186 0.522728,0.54036 1.190204,1.17422 1.483281,1.40857 0.521271,0.41681 1.465384,0.95546 1.465384,0.83606 0,-0.10638 -0.931381,-1.29393 -1.698228,-2.16532 -2.620886,-2.9782 -3.340219,-4.28248 -3.544885,-6.427525 -0.06522,-0.683556 -0.191802,-1.197117 -0.569143,-2.309091 -0.627671,-1.849668 -0.652656,-2.096108 -0.212505,-2.096108 0.854125,0 3.234507,1.961225 4.226486,3.48225 0.857556,1.314912 1.215141,2.461294 1.531675,4.910404 0.101009,0.78154 0.243933,1.76069 0.317609,2.17588 0.414764,2.33735 1.498056,4.19877 3.335896,5.73206 0.678784,0.5663 1.52297,1.19576 1.602524,1.1949 0.01562,-1.7e-4 0.0322,-0.70954 0.03683,-1.57639 0.0072,-1.34596 0.04327,-1.7431 0.247046,-2.71981 0.315202,-1.51075 1.002821,-3.56963 2.007868,-6.01199 0.976685,-2.373423 1.097796,-2.620592 1.350308,-2.755732 0.167031,-0.08939 0.220993,-0.07216 0.390238,0.124596 0.268094,0.311677 0.530115,1.144036 0.760386,2.415506 0.265842,1.46788 0.290854,4.17579 0.0459,4.96964 -0.407214,1.31971 -1.032699,2.14768 -2.610224,3.45522 -1.321648,1.09545 -1.550103,1.34797 -1.713803,1.89436 -0.151253,0.50483 0.05872,1.16743 0.578567,1.82571 l 0.403269,0.51067 3.040484,-0.003 3.040485,-0.003 0.532867,-0.35506 c 0.869848,-0.5796 1.735238,-0.81198 3.152797,-0.84662 0.659423,-0.0161 1.308599,-0.0611 1.442614,-0.0999 0.237483,-0.0688 0.222881,-0.0864 -0.575708,-0.69197 -1.636111,-1.24076 -4.191609,-3.92062 -4.91378,-5.15291 -0.295732,-0.50463 -0.478457,-1.01517 -0.418891,-1.17039 0.08589,-0.22382 0.493164,-0.10718 2.270222,0.65016 3.371672,1.43693 6.36571,2.52165 8.545543,3.096 0.488462,0.12871 1.008007,0.27868 1.154546,0.33328 0.372581,0.13881 1.251472,0.71392 2.397902,1.56906 0.974965,0.72725 2.156054,1.3922 2.355029,1.32587 0.0599,-0.02 -0.381882,-0.70214 -1.027267,-1.58626 -1.992288,-2.72923 -2.212741,-3.03857 -3.051798,-4.28233 -0.946021,-1.40232 -1.608769,-2.05891 -2.538233,-2.51465 -1.054138,-0.51688 -2.13024,-0.60555 -4.089672,-0.33701 -1.59684,0.21885 -3.044891,0.20569 -3.815192,-0.0347 -0.934216,-0.29151 -1.662457,-0.77016 -2.47518,-1.62686 -1.169882,-1.23318 -1.820966,-2.47635 -1.599373,-3.05381 0.254469,-0.663136 2.538941,-0.625857 5.454042,0.089 1.554698,0.381253 2.025213,0.56246 3.031592,1.16751 1.088185,0.65424 1.722862,1.14285 2.693814,2.07385 0.82186,0.78804 1.153582,1.02945 1.234548,0.89844 0.137698,-0.2228 -2.118824,-3.795913 -3.070617,-4.862199 -1.56976,-1.758587 -2.422003,-2.273747 -5.207257,-3.147661 -3.490485,-1.09519 -6.213514,-3.755291 -6.890352,-6.731121 -0.203272,-0.893719 -0.189911,-1.316684 0.04558,-1.442713 0.290927,-0.1557 0.596516,-0.05155 1.87223,0.638091 3.397487,1.836654 4.315053,2.459687 5.804796,3.941492 1.136896,1.130838 1.829014,2.02854 2.714896,3.521318 0.761674,1.283484 1.586738,2.339045 1.586738,2.030027 0,-0.235371 -1.654047,-4.043605 -2.488285,-5.728962 -0.851943,-1.721124 -1.797621,-3.312004 -2.961139,-4.981415 -0.770564,-1.105602 -1.267861,-2.497086 -1.631748,-4.565788 -0.215958,-1.227734 -0.209528,-4.42766 0.01133,-5.63593 0.208318,-1.13968 0.593155,-2.504011 0.926137,-3.283355 l 0.262951,-0.615438 0.144147,0.659844 c 0.07928,0.362914 0.264956,1.459145 0.412613,2.436068 0.415429,2.748559 0.60314,3.438741 1.376793,5.062238 0.858484,1.801515 1.002937,2.533396 1.288371,6.527622 0.107355,1.502267 0.258534,2.438844 0.541892,3.35709 0.181082,0.586815 0.765657,1.84268 0.828479,1.779857 0.01777,-0.01777 -0.04055,-0.551401 -0.129597,-1.18585 -0.802169,-5.715369 -0.232114,-8.7238 2.118217,-11.178748 0.323182,-0.337568 0.887342,-0.837806 1.253688,-1.111641 0.366347,-0.273836 0.94584,-0.722218 1.287763,-0.996404 0.738317,-0.592054 0.987348,-0.732011 1.174624,-0.660147 0.327535,0.125687 -0.08632,2.568603 -0.790661,4.667172 -0.254097,0.757072 -0.801616,1.961092 -1.72155,3.785766 -1.937568,3.843134 -2.33641,4.904448 -2.482215,6.605143 -0.183126,2.136004 0.894305,5.042913 2.775347,7.487894 l 0.422776,0.54952 0.06023,-0.932519 c 0.169463,-2.623528 1.259847,-4.831878 3.488982,-7.066216 1.059956,-1.062431 1.853283,-1.711864 3.176505,-2.600348 1.110828,-0.745871 1.400502,-0.773505 1.400502,-0.133602 0,0.495369 -0.983845,3.320566 -1.639526,4.708046 -1.054783,2.232011 -2.217927,3.484987 -4.472255,4.817656 -1.511103,0.893303 -1.761438,1.228573 -1.597523,2.139503 0.149781,0.83238 1.218541,2.72124 2.763838,4.88461 1.225427,1.71557 3.81189,5.15105 3.878058,5.15105 0.2534,0 0.141981,-1.06206 -0.229479,-2.18743 -0.276912,-0.83892 -0.365958,-1.91686 -0.217396,-2.63169 0.343419,-1.65244 1.739217,-3.04291 3.453805,-3.44064 0.260775,-0.0605 0.980146,-0.12087 1.598606,-0.13418 1.08849,-0.0234 1.16631,-0.0385 2.43281,-0.47085 1.61516,-0.55139 2.05205,-0.60803 2.15631,-0.27952 0.0453,0.14275 -0.10001,0.34628 -0.68975,0.966 -0.52227,0.54881 -1.0368,1.24013 -1.70942,2.29677 -1.45706,2.28895 -2.00213,2.8228 -3.418987,3.34866 -1.479913,0.54926 -2.270409,1.15423 -2.497164,1.91107 -0.08857,0.2956 -0.08937,0.50353 -0.0039,1.00779 0.108114,0.63796 0.332872,1.09512 0.933202,1.89817 l 0.280116,0.3747 1.342107,0.003 1.342106,0.003 0.0589,-0.57526 c 0.24286,-2.37047 2.32678,-5.43154 4.41971,-6.4921 0.84281,-0.42709 1.57422,-0.36157 1.98567,0.17788 0.42719,0.56007 0.25136,1.58264 -0.66202,3.85019 -0.51084,1.26821 -0.89315,2.49922 -0.89315,2.87587 0,0.15737 0.27281,0.16342 7.37133,0.16342 4.05423,0 7.37133,-0.0323 7.37133,-0.0718 0,-0.13932 -0.63671,-1.13088 -0.91606,-1.4266 -0.56279,-0.59579 -0.75857,-0.63481 -2.90283,-0.5785 -1.74517,0.0458 -1.97056,0.0342 -2.61993,-0.1349 -2.19091,-0.57059 -4.31428,-2.28479 -6.16314,-4.97549 -0.24931,-0.36283 -0.45329,-0.69862 -0.45329,-0.74619 0,-0.14886 1.76893,0.0106 2.66714,0.24041 0.4625,0.11833 1.75679,0.54083 2.87621,0.93889 1.11942,0.39806 2.31837,0.78266 2.66433,0.85468 1.28124,0.26672 2.07333,0.84942 3.17061,2.33245 0.60299,0.81496 1.47186,1.79086 1.59447,1.79086 0.0312,0 -0.0148,-0.46959 -0.10236,-1.04354 -0.60334,-3.95611 -1.55067,-6.04539 -3.05676,-6.74152 -0.46686,-0.21579 -0.63738,-0.24586 -1.37658,-0.24274 -0.46404,0.002 -1.4232,0.0995 -2.13147,0.2168 -1.8471,0.30586 -3.55276,0.29232 -4.64452,-0.0369 -1.27246,-0.38368 -2.63799,-1.14707 -2.63799,-1.47475 0,-0.27398 0.40963,-0.67636 0.90587,-0.88983 1.60154,-0.68897 5.55583,-0.82979 7.39027,-0.26318 0.56135,0.17338 1.03194,0.50052 2.26173,1.57231 0.35029,0.30529 0.68083,0.55507 0.73453,0.55507 0.1731,0 0.006,-0.54241 -0.45151,-1.46538 -0.86678,-1.74878 -2.00011,-2.72322 -3.736,-3.212213 -0.50989,-0.143635 -0.96601,-0.163623 -3.90769,-0.171237 -3.1233,-0.0081 -3.3746,-0.02059 -4.04091,-0.201128 -0.89449,-0.242364 -1.45948,-0.519305 -2.11397,-1.036209 -0.63989,-0.505377 -0.69441,-0.631355 -0.38747,-0.895372 0.2937,-0.252627 0.64666,-0.354666 1.83536,-0.530594 0.51288,-0.07591 1.25223,-0.241542 1.643,-0.368076 0.97156,-0.314601 2.2629,-0.330785 3.27493,-0.04105 1.34757,0.385807 2.75176,1.185628 4.4333,2.525202 0.42953,0.342176 0.80455,0.59855 0.83338,0.569724 0.0732,-0.07323 -0.57464,-1.142636 -1.19839,-1.978147 -1.15371,-1.545387 -2.14099,-2.262717 -4.71263,-3.424051 -0.9468,-0.427566 -2.00629,-0.94037 -2.35444,-1.139563 -1.23373,-0.705886 -2.99394,-2.446567 -4.02041,-3.975806 -0.46155,-0.687615 -1.06863,-1.942394 -0.98178,-2.029246 0.0908,-0.0908 1.45256,0.483515 2.7722,1.169165 0.78154,0.406068 1.89996,0.902692 2.48538,1.103606 2.05551,0.705446 2.5046,1.130344 4.13278,3.910163 0.35763,0.610577 0.79921,1.309965 0.9813,1.554195 0.46004,0.617062 1.32606,1.449752 1.32606,1.275023 0,-0.07694 -0.50387,-1.15463 -1.1197,-2.394869 -1.77393,-3.572488 -2.03213,-4.384798 -1.9713,-6.201749 0.0277,-0.826264 0.0769,-1.190225 0.18973,-1.40381 0.16075,-0.304167 0.25946,-0.964671 0.4123,-2.758779 0.11881,-1.394426 0.3029,-1.876626 0.66364,-1.738201 0.24272,0.09314 1.28246,1.624482 1.74158,2.565043 0.93701,1.919518 1.14975,3.728944 0.83949,7.140019 -0.19903,2.188292 -0.15253,4.274929 0.11699,5.249142 0.48892,1.767268 1.29186,3.134882 2.89209,4.926018 l 0.39405,0.44106 0.0481,-0.30784 c 0.0265,-0.16931 0.0727,-0.50767 0.10276,-0.7519 0.26142,-2.124588 1.45031,-4.863676 3.35371,-7.726569 1.39303,-2.095262 2.39293,-3.421052 2.62387,-3.479012 0.45126,-0.11326 0.59507,0.446019 0.5863,2.280061 -0.023,4.800157 -0.71532,6.228636 -3.94636,8.142181 -1.86792,1.106249 -2.31297,1.595259 -2.3052,2.532949 0.004,0.51672 0.0556,0.67529 0.64129,1.98046 0.52323,1.16603 1.09951,2.838 1.80602,5.23986 0.3161,1.07462 0.59411,2.00924 0.61781,2.07695 0.0343,0.0979 0.0809,0.0889 0.22794,-0.0442 0.30881,-0.27946 0.44242,-0.6361 0.62439,-1.66658 0.354,-2.00474 1.13995,-3.27309 2.51612,-4.06047 1.01502,-0.58074 2.52452,-0.66446 3.79552,-0.2105 1.04146,0.37198 1.4585,0.4674 2.86666,0.65586 0.7327,0.0981 1.48069,0.22127 1.66222,0.27378 0.33972,0.0983 0.60247,0.29854 0.60247,0.45916 0,0.1787 -0.52834,0.58031 -1.16955,0.88902 -0.35809,0.17241 -0.99078,0.54644 -1.40597,0.83119 -1.85024,1.26892 -2.47033,1.65358 -3.10079,1.92354 -0.64396,0.27573 -0.71681,0.28728 -1.65061,0.26156 -2.64235,-0.0728 -2.54811,-0.0803 -3.20854,0.25691 -0.67858,0.34649 -1.11939,0.84122 -1.28634,1.4437 -0.10879,0.39263 -0.13218,1.41461 -0.0359,1.57035 0.0355,0.0575 0.72635,0.0911 1.87145,0.0911 h 1.81514 l 0.53602,-0.3946 c 1.06573,-0.78454 2.23518,-1.18697 4.03922,-1.38997 1.9759,-0.22233 3.27678,0.32774 3.2828,1.38814 l 0.002,0.39586 18.49493,2.7e-4 18.49493,2.7e-4 v 0.44405 0.44406 l -21.51451,-0.0179 c -11.83295,-0.01 -33.76376,-0.0439 -48.73511,-0.0757 z m -30.817483,-1.0046 1.465385,-0.11296 -0.40773,-0.19157 c -0.642421,-0.30183 -1.279443,-0.40196 -2.210605,-0.34744 -0.86551,0.0507 -2.003946,0.3315 -2.754742,0.67955 l -0.39965,0.18526 1.420979,-0.0499 c 0.781538,-0.0275 2.080402,-0.10077 2.886363,-0.1629 z m 17.175659,-0.0101 c 0.07839,-0.11963 0.142523,-0.23548 0.142523,-0.25743 0,-0.022 -0.202383,-0.16444 -0.449739,-0.31664 l -0.44974,-0.27673 -1.718715,0.22381 c -1.561,0.20327 -2.861145,0.50635 -3.243344,0.75606 -0.08848,0.0578 0.825555,0.0873 2.721637,0.0877 l 2.854855,7.1e-4 0.142523,-0.21752 z m 1.023235,0.18791 c -0.02035,-0.0178 -0.12273,-0.0769 -0.227504,-0.13135 -0.149471,-0.0777 -0.213979,-0.0707 -0.299512,0.0324 -0.09295,0.11199 -0.05943,0.13135 0.227504,0.13135 0.185084,0 0.319864,-0.0146 0.299512,-0.0324 z m 9.066142,-0.0155 c 0,-0.0263 -0.281806,-0.18293 -0.626236,-0.34799 -0.812623,-0.38944 -1.663406,-0.53721 -2.361176,-0.4101 -0.483509,0.0881 -1.581481,0.56555 -1.684746,0.73263 -0.02493,0.0403 1.016114,0.0733 2.31342,0.0733 1.297305,0 2.358738,-0.0215 2.358738,-0.0479 z m 6.338797,-0.40673 c 0.54298,-0.96674 2.59668,-3.69477 2.70211,-3.58934 0.0778,0.0778 -0.50179,1.17752 -1.00788,1.91247 -0.63588,0.92343 -1.19457,1.86772 -1.19457,2.01905 0,0.15967 1.9408,0.16104 2.00196,0.001 0.0234,-0.0611 0.0775,-0.49068 0.1202,-0.95472 0.0751,-0.8157 0.10015,-0.88716 0.75487,-2.15275 0.73328,-1.41746 0.94186,-2.0448 0.94186,-2.8329 0,-0.44513 -0.0294,-0.53089 -0.23841,-0.69529 -0.49363,-0.38829 -1.31902,0.0392 -2.64796,1.37126 -1.61839,1.62226 -2.60015,3.33721 -2.83575,4.95356 l -0.0615,0.42185 0.60492,-9e-5 0.60492,-9e-5 0.25523,-0.45441 z m 30.07379,0.28895 c 0,-0.27567 -0.33294,-0.61035 -0.77806,-0.78209 -0.33132,-0.12784 -0.66661,-0.16204 -1.57544,-0.16071 -1.24578,0.002 -1.7035,0.0905 -2.95228,0.5721 -1.38653,0.53471 -1.40382,0.53038 2.13078,0.53352 3.04028,0.003 3.175,-0.004 3.175,-0.16282 z m -41.905931,-0.44688 c 0.275777,-0.10593 0.753641,-0.35563 1.06192,-0.55488 0.517562,-0.33452 0.547916,-0.37149 0.396166,-0.48245 -0.234002,-0.1711 -1.836159,-0.68769 -3.291665,-1.06134 -1.841989,-0.47286 -2.830024,-0.81263 -3.801016,-1.30711 -0.478636,-0.24375 -0.855224,-0.4582 -0.836861,-0.47656 0.01836,-0.0184 0.709711,0.19 1.53633,0.46303 2.303808,0.76093 6.50004,1.77309 6.6654,1.60773 0.126856,-0.12686 -0.232623,-0.38116 -1.165951,-0.82483 -2.955067,-1.40472 -11.412238,-4.41475 -11.412238,-4.06179 0,0.1353 1.272254,1.77421 2.110533,2.71877 0.848588,0.95618 1.594554,1.65486 2.59646,2.43186 0.839648,0.65117 0.875124,0.66415 1.384644,0.50672 1.371821,-0.42387 2.068903,-0.4281 1.940498,-0.0118 -0.03388,0.10986 -0.197611,0.38656 -0.363836,0.61489 l -0.302229,0.41513 0.5577,0.13746 c 0.801273,0.1975 2.260193,0.14019 2.924145,-0.11487 z m -3.673472,-0.62015 0.276898,-0.34456 -0.55067,0.16918 c -0.302869,0.0931 -0.590636,0.18362 -0.639482,0.20128 -0.07629,0.0276 0.439042,0.30541 0.584612,0.31519 0.02846,0.002 0.176348,-0.15158 0.328642,-0.34109 z m -25.95801,-1.03111 c 1.935125,-0.40227 4.041056,-1.10102 4.315707,-1.43195 0.317007,-0.38197 -1.826816,-0.37568 -3.472001,0.0102 -0.512884,0.12029 -1.03243,0.21767 -1.154545,0.21639 -0.204991,-0.002 -0.197927,-0.0151 0.09205,-0.16842 0.50423,-0.26664 1.527322,-0.44381 3.216165,-0.55695 0.867019,-0.0581 1.576398,-0.13608 1.576398,-0.17333 0,-0.15663 -1.05235,-0.36792 -1.820629,-0.36555 -1.446146,0.004 -3.239987,0.65127 -4.876993,1.75852 -1.036919,0.70136 -1.182405,0.83541 -1.024208,0.94372 0.216684,0.14835 1.921316,0.0224 3.148054,-0.23262 z m 56.173073,-0.50425 0.31084,-0.13416 -0.64674,-0.42008 c -0.75331,-0.48932 -1.1845,-0.68823 -2.99451,-1.38142 -1.35166,-0.51765 -2.49382,-1.04712 -2.41941,-1.12154 0.10503,-0.10502 4.7049,1.61949 5.85831,2.1963 0.27947,0.13976 0.54923,0.25411 0.59947,0.25411 0.22001,0 0.06,-0.35948 -0.2861,-0.64296 -1.57143,-1.28694 -4.46661,-2.58364 -6.86067,-3.07278 -0.88437,-0.18069 -2.69827,-0.40965 -2.75959,-0.34832 -0.0727,0.0727 1.23306,1.58576 1.98623,2.30141 1.31287,1.24745 2.59626,2.02113 3.97057,2.39361 0.77394,0.20976 2.73345,0.19516 3.2416,-0.0242 z m 9.23637,-1.26645 c 1.18708,-0.21492 2.08401,-0.62531 2.93077,-1.34095 0.21981,-0.18577 0.88285,-0.56819 1.47344,-0.84982 0.99185,-0.47298 1.63495,-0.8868 1.63495,-1.05205 0,-0.0373 -0.32971,-0.0936 -0.73269,-0.12505 -0.40298,-0.0315 -1.33217,-0.19875 -2.06486,-0.3717 -2.35878,-0.5568 -2.56145,-0.59182 -3.46364,-0.59854 -0.73014,-0.005 -0.98289,0.0303 -1.42098,0.20091 -0.99642,0.38809 -1.85714,1.48929 -2.40955,3.08279 -0.28173,0.81267 -0.0957,0.75962 1.49125,-0.42527 1.15282,-0.86074 2.16375,-1.4131 2.58625,-1.4131 0.14326,0 0.22859,0.0378 0.19777,0.0877 -0.0298,0.0482 -0.5343,0.33247 -1.12106,0.63162 -1.33587,0.68107 -2.38767,1.61202 -2.38767,2.11335 0,0.18793 2.34326,0.23079 3.28602,0.0601 z m 1.50979,-3.15922 c 0,-0.0488 0.04,-0.0888 0.0888,-0.0888 0.0489,0 0.0888,0.04 0.0888,0.0888 0,0.0489 -0.04,0.0888 -0.0888,0.0888 -0.0488,0 -0.0888,-0.04 -0.0888,-0.0888 z m -53.168655,1.73182 c 1.472683,-1.76661 1.885752,-4.70148 1.109352,-7.88199 -0.104334,-0.42741 -0.221403,-0.7771 -0.260153,-0.7771 -0.250327,0 -1.397714,2.6337 -1.893267,4.34578 -0.256085,0.88475 -0.884328,3.48144 -1.075791,4.44653 l -0.06167,0.31084 0.172186,-0.22203 c 0.656431,-0.84644 1.432319,-2.51822 1.978472,-4.26294 0.523596,-1.67266 0.501333,-1.62853 0.576569,-1.14293 0.0368,0.23751 0.0195,0.63148 -0.04094,0.93251 -0.113015,0.56287 -1.164202,3.25372 -1.641458,4.20184 -0.31007,0.61599 -0.505321,1.20467 -0.425901,1.28409 0.09793,0.0979 1.134487,-0.72104 1.562599,-1.2346 z m 22.801163,0.34526 c 1.781659,-0.5291 3.107212,-1.67718 5.358122,-4.64073 0.67193,-0.88466 1.25856,-1.63126 1.30364,-1.65911 0.0451,-0.0279 0.0819,-0.0804 0.0819,-0.11667 0,-0.0363 -0.32971,0.0406 -0.73269,0.17094 -0.40298,0.13033 -1.57196,0.40501 -2.59773,0.61041 -2.794823,0.55964 -3.72265,0.92073 -4.481656,1.74415 -0.632846,0.68656 -0.758202,1.06722 -0.758202,2.30239 0,1.08389 0.06753,1.5542 0.223163,1.5542 0.118372,0 0.469002,-0.51655 1.153411,-1.6992 0.632041,-1.09217 1.267967,-1.85713 1.688754,-2.03143 0.148933,-0.0617 0.291892,-0.0911 0.317687,-0.0653 0.02579,0.0258 -0.246576,0.36089 -0.605267,0.74465 -1.073744,1.14879 -1.481511,1.85339 -1.624533,2.80713 -0.07348,0.48997 -0.05893,0.49599 0.673351,0.27853 z m 2.658402,-4.65784 c 0,-0.0517 0.04,-0.0694 0.0888,-0.0392 0.0488,0.0302 0.0888,0.0725 0.0888,0.0941 0,0.0215 -0.04,0.0392 -0.0888,0.0392 -0.0489,0 -0.0888,-0.0423 -0.0888,-0.094 z m -37.239876,2.04126 c 0.245159,-0.0936 0.246564,-0.0981 0.07239,-0.23197 -0.329465,-0.25323 -1.075611,-0.54416 -2.139266,-0.83411 -0.581865,-0.15862 -1.257762,-0.38173 -1.501992,-0.49581 l -0.444056,-0.20741 0.39965,0.0464 c 0.219808,0.0255 0.999126,0.22821 1.731818,0.45044 1.406435,0.42656 2.353497,0.58673 2.353497,0.39801 0,-0.0586 -0.209817,-0.32833 -0.466259,-0.59951 -0.804593,-0.85082 -1.916414,-1.27939 -3.308217,-1.2752 -1.325388,0.004 -3.624621,0.1586 -3.891951,0.26172 -0.48689,0.18781 -0.269627,0.36884 1.514782,1.26218 1.490469,0.74618 1.813019,0.8738 2.531119,1.00143 1.829415,0.32514 2.717709,0.3883 3.148485,0.22384 z m 3.509349,-1.50369 c 0.155397,-0.69686 -0.316214,-3.05198 -0.934854,-4.66844 -0.979526,-2.559437 -2.288117,-4.299454 -3.741415,-4.974911 -0.344149,-0.159951 -0.659141,-0.258139 -0.699983,-0.218195 -0.04084,0.03994 0.04428,0.34694 0.18916,0.682214 0.375715,0.869461 0.498937,1.286926 0.94014,3.185112 0.450088,1.93642 0.667078,2.62624 1.061589,3.37483 0.289695,0.5497 1.595719,2.00093 1.703688,1.89311 0.03345,-0.0334 -0.177884,-0.69282 -0.469622,-1.46538 -0.291737,-0.77256 -0.556285,-1.51456 -0.587885,-1.64889 -0.09509,-0.40422 0.09757,-0.27484 0.264505,0.17762 0.709341,1.92258 1.237948,3.10088 1.640275,3.65628 0.323708,0.44687 0.535741,0.44909 0.634402,0.007 z m 46.888357,-0.91596 c 0.4716,-0.12295 0.96897,-0.28196 1.10525,-0.35337 l 0.2478,-0.12983 -0.37976,-0.19373 c -0.55668,-0.284 -1.56089,-0.51729 -2.53419,-0.58874 -0.87241,-0.064 -1.13422,-0.1635 -0.71036,-0.26989 0.4491,-0.11271 2.95875,0.1663 4.19142,0.46599 0.23203,0.0564 0.23582,0.0519 0.0926,-0.1099 -0.28874,-0.32628 -1.10461,-0.7446 -1.79817,-0.92199 -0.92013,-0.23533 -2.25338,-0.23361 -3.55882,0.005 -0.5373,0.098 -1.43246,0.25868 -1.98923,0.35699 -0.9827,0.1735 -1.44278,0.33004 -1.56865,0.5337 -0.19511,0.31569 1.17628,1.00301 2.62992,1.31807 1.18359,0.25653 3.046,0.20775 4.27216,-0.1119 z m -28.566574,-0.5498 c 0.293077,-0.0657 0.732202,-0.20497 0.975834,-0.30943 l 0.442967,-0.18991 -0.220939,-0.17037 c -0.630885,-0.48649 -1.700017,-0.93455 -3.684575,-1.54415 -0.380317,-0.11682 -0.477591,-0.3433 -0.166513,-0.38768 0.299254,-0.0427 1.547985,0.30728 3.130757,0.87744 0.803196,0.28933 1.50176,0.52606 1.552366,0.52606 0.150459,0 -0.480005,-0.61034 -1.052974,-1.01936 -1.397425,-0.99757 -3.03134,-1.483511 -5.51849,-1.641241 -0.677138,-0.04294 -1.558008,-0.129018 -1.957488,-0.191278 -1.141926,-0.177974 -1.400606,0.03473 -0.999181,0.821589 0.240693,0.4718 0.765353,1.03408 1.5655,1.67777 1.87103,1.50516 3.840286,2.01984 5.932736,1.55056 z M 120.7555,99.307705 c 1.44958,-0.767217 2.55961,-2.534375 3.07885,-4.901527 0.20448,-0.932197 0.34721,-4.040909 0.18553,-4.040909 -0.13359,0 -1.15156,1.241891 -1.7456,2.129549 -0.84243,1.258845 -3.05423,5.867762 -2.95654,6.160821 0.0459,0.13784 1.24171,-1.293354 1.88091,-2.251209 0.5885,-0.881918 1.49164,-2.476503 1.59703,-2.819755 0.11905,-0.387687 0.25226,-0.217606 0.19104,0.243902 -0.10545,0.79484 -0.39803,1.329241 -2.17737,3.976976 -0.80892,1.203695 -1.16278,1.81095 -1.10744,1.900483 0.0517,0.0837 0.37059,-0.03685 1.05359,-0.398331 z m -9.64601,-0.717858 c 0.45717,-0.07291 0.8503,-0.151643 0.87362,-0.174969 0.19845,-0.198452 -1.94471,-0.82491 -3.25902,-0.95263 -0.51288,-0.04984 -1.14233,-0.11129 -1.39877,-0.136553 -0.52208,-0.05143 -0.60682,-0.16579 -0.19061,-0.257206 0.37721,-0.08285 0.98113,-0.0015 3.04472,0.409994 0.9714,0.193716 1.7847,0.333698 1.80733,0.311071 0.16275,-0.162748 -0.85985,-0.697905 -1.82894,-0.957139 -0.82203,-0.219897 -2.68893,-0.25977 -3.78722,-0.08089 -1.20887,0.196892 -2.74807,0.67197 -2.6566,0.819966 0.0748,0.121007 1.16945,0.651441 1.71001,0.828604 0.98577,0.323081 1.68883,0.399859 3.30008,0.360385 0.85481,-0.02094 1.92825,-0.09773 2.3854,-0.170635 z M 91.703664,98.372449 c 0.936916,-0.441633 1.597908,-0.991214 2.278548,-1.894491 0.876777,-1.163571 1.900388,-3.453614 2.606467,-5.83124 l 0.140452,-0.47295 -0.507939,0.284256 c -2.141089,1.198207 -4.398264,3.834155 -5.481529,6.401374 l -0.313931,0.743983 1.004633,-1.021329 c 0.552549,-0.56173 1.540042,-1.677884 2.194429,-2.48034 0.654387,-0.802457 1.206362,-1.409313 1.22661,-1.348568 0.07697,0.230921 -0.538176,1.253021 -1.291406,2.145733 -1.34569,1.594883 -2.68584,3.442341 -2.686622,3.70363 -4.44e-4,0.156732 0.02425,0.149882 0.830288,-0.230058 z m -8.734816,-3.359933 c 0,-0.23818 -1.4345,-1.565078 -3.230286,-2.987984 -1.432363,-1.134945 -1.85841,-1.570452 -1.536338,-1.570452 0.225308,0 0.912738,0.531887 2.635156,2.038905 1.818274,1.590885 2.364958,2.020146 2.456357,1.928748 0.03038,-0.03038 -0.100229,-0.281478 -0.290245,-0.557991 -0.992652,-1.444523 -2.104804,-2.453527 -3.765539,-3.4163 -0.541372,-0.313849 -1.682149,-0.984439 -2.535057,-1.4902 -2.022946,-1.199575 -2.132608,-1.165412 -1.367362,0.425974 0.650748,1.353281 1.338733,2.337001 2.301732,3.291144 1.02447,1.015048 1.643411,1.391291 3.062438,1.8616 1.651086,0.54722 2.269144,0.677022 2.269144,0.476556 z M 110.23697,93.30038 c -0.22831,-0.320645 -0.89326,-0.88783 -1.77931,-1.517724 -0.96041,-0.682752 -1.75853,-1.331984 -1.81347,-1.475171 -0.0644,-0.167881 0.0645,-0.093 1.14739,0.666502 2.8365,1.989399 3.15461,2.162365 3.02466,1.644593 -0.0322,-0.12837 -0.20175,-0.458081 -0.37673,-0.732692 -0.90447,-1.419437 -1.84172,-2.072579 -4.60178,-3.206839 -0.73269,-0.301103 -1.66639,-0.724288 -2.07489,-0.940411 -0.72136,-0.381652 -0.9891,-0.468685 -0.9891,-0.321526 0,0.132522 0.55138,0.942107 1.09898,1.613623 0.85025,1.042651 2.33712,2.543489 2.90144,2.928689 1.14084,0.778731 2.89897,1.596219 3.44357,1.601175 l 0.20587,0.0019 -0.18663,-0.262092 z m 3.76517,-0.366355 c 0.23272,-0.783647 0.34121,-2.924262 0.23263,-4.590149 -0.20876,-3.203138 -0.72485,-5.098147 -1.6368,-6.010105 -0.59523,-0.595234 -0.63984,-0.563357 -0.70641,0.50475 -0.0312,0.500673 -0.15663,1.609703 -0.27874,2.46451 -0.44929,3.145284 -0.25693,4.67917 0.78237,6.238815 0.2839,0.426024 0.46429,0.55234 0.38075,0.266605 -0.025,-0.08548 -0.11493,-0.885464 -0.19986,-1.77774 -0.11885,-1.248798 -0.13022,-1.646509 -0.0494,-1.727377 0.0809,-0.08087 0.10506,-0.05323 0.10506,0.120065 0,0.30407 0.5931,3.849647 0.71853,4.295367 0.22878,0.812983 0.45239,0.886829 0.65182,0.215259 z m -27.366074,-4.18956 c 0.364434,-0.696058 1.029096,-1.940175 1.477027,-2.764705 1.394359,-2.56667 2.11532,-4.31546 2.479162,-6.013556 0.226079,-1.055135 0.267332,-1.609733 0.123313,-1.657739 -0.216621,-0.07221 -0.730387,0.357181 -1.631682,1.363702 -0.505771,0.564819 -1.183627,1.219845 -1.506348,1.455613 -0.948396,0.692865 -1.455397,1.432119 -1.841937,2.685713 -0.310387,1.006621 -0.415484,2.683679 -0.226096,3.60788 0.03005,0.14662 0.182371,-0.197595 0.510923,-1.154546 0.502327,-1.463088 0.922638,-2.402445 1.098326,-2.454653 0.07227,-0.02148 0.05197,0.09707 -0.06023,0.351786 -0.243048,0.551774 -0.781581,2.360336 -1.026752,3.448162 -0.28184,1.250521 -0.355914,1.968129 -0.227857,2.207406 0.05607,0.104773 0.117159,0.190496 0.135746,0.190496 0.01859,0 0.33197,-0.569501 0.696405,-1.265559 z m -4.016844,-1.554396 c -0.09931,-0.388963 -0.358461,-1.262415 -0.575888,-1.941003 -0.555086,-1.73242 -0.772061,-2.639096 -0.815962,-3.409671 -0.0373,-0.654727 -0.03037,-0.638069 0.406657,0.976923 0.840922,3.10756 1.383611,4.573776 1.69289,4.573776 0.103568,0 0.136045,-0.173558 0.157874,-0.843706 0.05172,-1.587624 -0.233338,-2.915405 -1.320222,-6.149556 -0.839473,-2.497953 -1.114974,-3.588563 -1.263279,-5.000866 -0.232029,-2.209599 -0.664863,-0.966953 -0.870377,2.498812 -0.146217,2.465789 -0.07908,4.653717 0.162174,5.285334 0.10082,0.263952 0.31083,0.839598 0.466689,1.279213 0.459404,1.295801 1.194559,2.721316 1.653821,3.206871 0.225977,0.238913 0.427814,0.388644 0.448528,0.332735 0.02071,-0.05591 -0.04359,-0.419897 -0.142905,-0.808862 z"
         id="path230" /><path
         style="display:inline;fill:#a4bdff;fill-opacity:1;stroke-width:0.0888112"
         d="m 74.449986,165.27011 c 0.0043,-0.10347 0.02531,-0.1245 0.05366,-0.0537 0.02566,0.0641 0.0225,0.14071 -0.007,0.17022 -0.02951,0.0295 -0.0505,-0.0229 -0.04665,-0.11656 z m 4.085314,-0.71049 c 0.0043,-0.10346 0.02531,-0.1245 0.05366,-0.0537 0.02565,0.0641 0.0225,0.14071 -0.007,0.17022 -0.02951,0.0295 -0.0505,-0.0229 -0.04664,-0.11656 z m -8.88813,-0.88071 c 0.114722,-0.12212 0.228567,-0.22203 0.25299,-0.22203 0.02442,0 -0.04946,0.0999 -0.164179,0.22203 -0.114722,0.12211 -0.228567,0.22202 -0.25299,0.22202 -0.02442,0 0.04946,-0.0999 0.164179,-0.22202 z m 15.009091,0 c 0.114722,-0.12212 0.228567,-0.22203 0.25299,-0.22203 0.02442,0 -0.04946,0.0999 -0.164179,0.22203 -0.114722,0.12211 -0.228567,0.22202 -0.25299,0.22202 -0.02442,0 0.04946,-0.0999 0.164179,-0.22202 z m -11.094387,-1.16195 c 0.0043,-0.10346 0.02531,-0.1245 0.05366,-0.0537 0.02565,0.0641 0.0225,0.14072 -0.007,0.17023 -0.02951,0.0295 -0.0505,-0.023 -0.04665,-0.11657 z m 15.009091,0 c 0.0043,-0.10346 0.02531,-0.1245 0.05366,-0.0537 0.02566,0.0641 0.0225,0.14072 -0.007,0.17023 -0.02951,0.0295 -0.0505,-0.023 -0.04665,-0.11657 z m 5.765716,-0.0814 c 0.114721,-0.12212 0.228567,-0.22203 0.25299,-0.22203 0.02442,0 -0.04946,0.0999 -0.164179,0.22203 -0.114722,0.12211 -0.228567,0.22203 -0.25299,0.22203 -0.02442,0 0.04946,-0.0999 0.164179,-0.22203 z m -0.04441,-0.22203 c 0.08841,-0.0977 0.180729,-0.17762 0.205152,-0.17762 0.02442,0 -0.02793,0.0799 -0.116341,0.17762 -0.08841,0.0977 -0.180729,0.17762 -0.205152,0.17762 -0.02442,0 0.02793,-0.0799 0.116341,-0.17762 z m -14.476224,-0.44405 c 0.08841,-0.0977 0.180729,-0.17763 0.205152,-0.17763 0.02442,0 -0.02793,0.0799 -0.116341,0.17763 -0.08841,0.0977 -0.180729,0.17762 -0.205152,0.17762 -0.02442,0 0.02793,-0.0799 0.116341,-0.17762 z m 14.098776,-0.41886 c 0.134327,-0.0203 0.354135,-0.0203 0.488462,0 0.134327,0.0204 0.02442,0.037 -0.244231,0.037 -0.268654,0 -0.378558,-0.0166 -0.244231,-0.037 z M 146.46885,147.7267 c -0.26865,-0.0433 -0.77124,-0.21716 -1.11685,-0.38646 -1.47835,-0.72418 -2.34679,-2.21012 -2.34679,-4.01546 0,-2.40798 1.56275,-4.16566 3.9757,-4.47159 1.79945,-0.22815 3.30563,0.55642 4.09469,2.13292 1.16797,2.33354 0.28752,5.27028 -1.91312,6.38115 -0.8325,0.42025 -1.64363,0.52849 -2.69363,0.35944 z m 2.17536,-0.61083 c 0.85793,-0.41532 1.45327,-1.25441 1.69323,-2.38651 0.45408,-2.14228 -0.36764,-4.44735 -1.86678,-5.23664 -0.38392,-0.20213 -0.55504,-0.23539 -1.20251,-0.23371 -0.90898,0.002 -1.54353,0.25258 -2.13147,0.84053 -0.71813,0.71813 -1.12223,2.04158 -1.03227,3.38081 0.12565,1.87065 0.97902,3.23371 2.34643,3.74792 0.58823,0.2212 1.61269,0.1687 2.19337,-0.1124 z m -9.36907,0.51842 c -0.61057,-0.0445 -1.51982,-0.0694 -2.02055,-0.0555 -0.81752,0.0227 -0.9104,0.009 -0.91031,-0.13011 7e-5,-0.12013 0.0757,-0.15573 0.33314,-0.15678 0.18317,-7.1e-4 0.3884,-0.0364 0.45608,-0.0793 0.098,-0.062 0.14905,-0.81228 0.25067,-3.68095 0.14401,-4.06485 0.14719,-4.03474 -0.4412,-4.18047 -0.2081,-0.0515 -0.33216,-0.13447 -0.33216,-0.22203 0,-0.12112 0.18353,-0.13975 1.37657,-0.13975 1.21014,0 1.37657,0.0174 1.37657,0.14397 0,0.10542 -0.11711,0.15952 -0.43721,0.20198 l -0.43722,0.058 -0.0489,0.55292 c -0.0269,0.3041 -0.0948,1.92563 -0.1509,3.60338 -0.0997,2.97848 -0.0979,3.05603 0.0727,3.28602 0.25525,0.34404 0.74443,0.47916 1.57877,0.4361 0.96693,-0.0499 1.36899,-0.26102 1.67796,-0.88106 0.12731,-0.25548 0.23148,-0.51661 0.23148,-0.58029 0,-0.0637 0.0845,-0.11578 0.1877,-0.11578 0.17347,0 0.18299,0.032 0.12542,0.42185 -0.0343,0.23202 -0.1487,0.68163 -0.25431,0.99913 l -0.19203,0.57727 -0.66608,0.0111 c -0.36635,0.006 -1.16565,-0.0253 -1.77623,-0.0697 z m -17.67348,-0.18563 c 4e-5,-0.11588 0.0735,-0.15573 0.28869,-0.15663 0.15875,-7.1e-4 0.37205,-0.0236 0.47399,-0.051 0.1817,-0.0488 0.18765,-0.12217 0.3021,-3.7239 0.1313,-4.13205 0.1396,-4.06073 -0.48678,-4.17824 -0.20586,-0.0386 -0.3114,-0.1078 -0.31117,-0.20398 0,-0.13066 0.21139,-0.14553 2.06486,-0.14553 2.06264,0 2.06493,1.7e-4 2.50858,0.23543 0.83876,0.44472 1.19384,1.06223 1.19699,2.08167 0.005,1.50874 -1.13897,2.61192 -2.70773,2.61192 -0.51712,0 -0.57633,-0.0182 -0.57633,-0.17763 0,-0.15149 0.0592,-0.17762 0.4025,-0.17762 0.74508,0 1.38347,-0.40404 1.75406,-1.11014 0.1393,-0.2654 0.18777,-0.52424 0.19169,-1.02348 0.007,-0.88381 -0.25762,-1.43243 -0.87478,-1.81398 -0.37557,-0.2322 -0.52543,-0.26787 -1.26069,-0.30003 l -0.83446,-0.0365 -0.003,0.29923 c -0.002,0.16457 -0.058,1.78922 -0.12525,3.61033 -0.0763,2.06773 -0.0918,3.42143 -0.0411,3.60492 0.0783,0.28362 0.36461,0.49971 0.66205,0.49971 0.071,0 0.129,0.0699 0.12895,0.15542 -8e-5,0.14133 -0.12487,0.15542 -1.37663,0.15542 -1.25181,0 -1.37654,-0.0141 -1.37649,-0.15542 z m 6.03917,0 c 4e-5,-0.12081 0.0754,-0.15542 0.33832,-0.15542 0.18604,0 0.40455,-0.0499 0.48557,-0.11101 0.27338,-0.20603 1.67323,-3.58958 2.77619,-6.7103 0.48482,-1.37174 0.63242,-1.6991 0.78398,-1.73873 0.10268,-0.0269 0.21412,-0.0202 0.24761,0.0149 0.0335,0.035 0.56383,1.69381 1.17851,3.68616 0.61467,1.99235 1.21881,3.82219 1.34252,4.06631 0.2232,0.44049 0.64491,0.79172 0.95137,0.79237 0.0887,1.8e-4 0.15542,0.0671 0.15542,0.15575 0,0.14174 -0.12899,0.15542 -1.46539,0.15542 -1.33639,0 -1.46538,-0.0137 -1.46538,-0.15542 0,-0.12015 0.0756,-0.15573 0.33304,-0.15678 0.549,-0.002 0.55956,-0.0399 0.28616,-1.01997 -0.13626,-0.48846 -0.29291,-1.05796 -0.34809,-1.26556 l -0.10034,-0.37744 -1.21772,0.0105 c -1.77282,0.0153 -1.67015,-0.0331 -2.02715,0.95516 -0.44394,1.2289 -0.40306,1.54055 0.2184,1.66484 0.17647,0.0353 0.28015,0.10945 0.28011,0.20035 -6e-5,0.12701 -0.16519,0.14432 -1.37662,0.14432 -1.25181,0 -1.37654,-0.0141 -1.37651,-0.15542 z m 5.32872,-3.32878 c 0,-0.17461 -1.00168,-3.72049 -1.07131,-3.7924 -0.0441,-0.0456 -0.1,-0.0632 -0.12404,-0.0391 -0.0241,0.0241 -0.34323,0.91062 -0.70926,1.97012 l -0.6655,1.92637 h 1.28505 c 0.70678,0 1.28506,-0.0292 1.28506,-0.065 z m 19.27196,3.34008 c 5e-5,-0.10812 0.11147,-0.15482 0.44608,-0.18698 0.2453,-0.0236 0.46546,-0.0623 0.48923,-0.0861 0.0238,-0.0238 0.24386,-1.85796 0.48907,-4.07596 0.61545,-5.56686 0.49091,-5.52797 2.53346,-0.79112 0.82144,1.905 1.51832,3.46363 1.54862,3.46363 0.0303,0 0.79337,-1.52817 1.69571,-3.39594 1.41626,-2.93154 1.67337,-3.40747 1.88011,-3.48018 0.13173,-0.0463 0.27025,-0.0535 0.30784,-0.016 0.0376,0.0375 0.11063,1.81343 0.16232,3.94643 0.0658,2.71386 0.12638,3.93756 0.20187,4.07597 0.12619,0.23138 0.37239,0.37948 0.63083,0.37948 0.11552,0 0.18346,0.0576 0.18346,0.15542 0,0.14154 -0.12688,0.15542 -1.42098,0.15542 -1.2941,0 -1.42098,-0.0139 -1.42098,-0.15542 0,-0.11589 0.0734,-0.15573 0.28864,-0.15663 0.15875,-7.1e-4 0.37855,-0.0253 0.48846,-0.0548 l 0.19982,-0.0536 v -3.18684 c 0,-2.49071 -0.0242,-3.18666 -0.11101,-3.18601 -0.0611,4.4e-4 -0.81768,1.44919 -1.68137,3.21941 -1.15322,2.36361 -1.61066,3.21857 -1.7221,3.21857 -0.11476,0 -0.46189,-0.72501 -1.42451,-2.97518 -1.50651,-3.52153 -1.53723,-3.58905 -1.60249,-3.52378 -0.0568,0.0568 -0.46928,5.01696 -0.47252,5.68149 -0.002,0.49473 0.27871,0.86187 0.65996,0.86187 0.15613,0 0.22604,0.0481 0.22598,0.15542 -8e-5,0.14087 -0.12065,0.15542 -1.28782,0.15542 -1.12877,0 -1.28773,-0.0178 -1.28768,-0.14412 z m 10.65741,-0.0113 c 0,-0.12081 0.0753,-0.15542 0.33827,-0.15542 0.18604,0 0.40015,-0.0499 0.47578,-0.11101 0.31662,-0.25561 2.86966,-6.64922 3.2327,-8.0957 0.0615,-0.24495 0.45416,-0.48195 0.57108,-0.34467 0.0327,0.0384 0.54967,1.66431 1.14875,3.61301 0.59907,1.94871 1.15967,3.70747 1.24578,3.90836 0.2371,0.55314 0.59163,0.92682 0.9416,0.99247 0.20051,0.0376 0.30548,0.10732 0.30548,0.20285 0,0.12896 -0.1669,0.14553 -1.46538,0.14553 -1.3364,0 -1.46539,-0.0137 -1.46539,-0.15542 0,-0.12232 0.0763,-0.15542 0.35803,-0.15542 0.22327,0 0.37582,-0.0463 0.40528,-0.12311 0.026,-0.0677 -0.10154,-0.66719 -0.28339,-1.33217 l -0.33064,-1.20905 -1.20699,0.0105 c -1.76089,0.0153 -1.68039,-0.0197 -2.01907,0.87801 -0.45356,1.20215 -0.35697,1.77582 0.29899,1.77582 0.13343,0 0.20227,0.0529 0.20227,0.15542 0,0.14134 -0.12477,0.15542 -1.37658,0.15542 -1.25181,0 -1.37657,-0.0141 -1.37657,-0.15542 z m 5.27519,-3.4904 c -0.44513,-1.77353 -1.00778,-3.6367 -1.09823,-3.6367 -0.065,0 -0.38316,0.79096 -0.76741,1.90766 -0.36102,1.04922 -0.6564,1.91846 -0.6564,1.93165 0,0.0132 0.58025,0.024 1.28945,0.024 h 1.28945 z m -73.038129,-7.41424 c -0.983794,-0.17475 -1.74046,-0.58226 -2.379559,-1.28153 -0.809301,-0.88551 -1.170117,-1.87977 -1.171834,-3.22911 -0.0017,-1.34821 0.441548,-2.44049 1.339958,-3.30187 0.559236,-0.53619 1.145965,-0.84983 1.996995,-1.06748 1.627935,-0.41636 3.041328,-0.0826 4.089565,0.9656 1.113574,1.11357 1.536474,2.8738 1.100244,4.57945 -0.606209,2.37025 -2.659201,3.74635 -4.975369,3.33494 z m 2.191883,-0.64863 c 1.796574,-0.91039 2.373443,-3.91721 1.198195,-6.24536 -0.310482,-0.61506 -1.010253,-1.3018 -1.586043,-1.5565 -0.568265,-0.25137 -1.752393,-0.19958 -2.336902,0.10221 -1.331829,0.68764 -1.90591,1.80018 -1.903435,3.68876 0.0028,2.10278 0.933104,3.68235 2.465093,4.18529 0.572459,0.18793 1.613737,0.10398 2.163092,-0.1744 z m -17.245379,0.54871 c -0.439616,-0.0453 -1.169009,-0.0707 -1.620873,-0.0563 -0.708871,0.0225 -0.821563,0.006 -0.821504,-0.11779 5e-5,-0.10485 0.109657,-0.15622 0.404106,-0.18941 0.222221,-0.025 0.429224,-0.0707 0.460009,-0.10151 0.07274,-0.0727 0.310314,-6.72503 0.2587,-7.24387 -0.04394,-0.44171 -0.289582,-0.714 -0.644123,-0.714 -0.15329,0 -0.21219,-0.0495 -0.21219,-0.1784 0,-0.16443 0.03904,-0.1738 0.498599,-0.11979 0.274229,0.0322 1.003591,0.007 1.620804,-0.0558 1.283302,-0.1308 1.885425,-0.0531 2.411831,0.31117 0.438452,0.30343 0.634675,0.68361 0.686583,1.33028 0.05862,0.73029 -0.22314,1.37383 -0.87526,1.99908 -0.3218,0.30854 -0.414852,0.44352 -0.305739,0.44352 0.306798,0 1.229187,0.5705 1.478221,0.91428 0.338664,0.46751 0.478224,1.17454 0.349927,1.77277 -0.189598,0.88406 -0.670294,1.46352 -1.518106,1.83002 -0.516011,0.22307 -1.185874,0.2773 -2.170985,0.17575 z m 1.879338,-0.5719 c 0.599836,-0.37151 0.829958,-0.84841 0.827453,-1.71478 -0.0043,-1.47803 -0.844141,-2.25372 -2.455084,-2.26748 -0.350021,-0.003 -0.656382,0.0145 -0.6808,0.039 -0.02442,0.0244 -0.05776,0.86921 -0.07408,1.87731 -0.02803,1.73048 -0.01976,1.84398 0.147933,2.03094 0.269738,0.30072 0.474585,0.35708 1.175744,0.32348 0.521583,-0.025 0.721357,-0.0794 1.058839,-0.28844 z m -0.371252,-4.66359 c 0.437553,-0.48432 0.578977,-0.85071 0.578977,-1.49998 0,-0.66483 -0.146412,-1.03077 -0.556454,-1.39079 -0.481226,-0.42252 -1.648188,-0.51929 -1.790483,-0.14848 -0.02898,0.0755 -0.07851,0.85021 -0.11007,1.72155 l -0.05739,1.58425 0.524504,0.0325 c 0.288478,0.0179 0.64974,0.04 0.802806,0.0493 0.223977,0.0135 0.342681,-0.0545 0.608106,-0.34826 z m 6.174081,5.23551 c -0.610576,-0.0444 -1.54082,-0.0693 -2.067208,-0.0555 -0.808826,0.0213 -0.953106,0.005 -0.931484,-0.10705 0.01632,-0.0844 0.181102,-0.15451 0.455086,-0.1937 0.236225,-0.0338 0.449585,-0.0815 0.474133,-0.10607 0.05894,-0.0589 0.189403,-3.44148 0.222526,-5.76947 l 0.02632,-1.84977 -0.209664,-0.17069 c -0.115316,-0.0939 -0.305149,-0.17069 -0.421853,-0.17069 -0.142924,0 -0.212149,-0.0507 -0.212068,-0.15542 8.9e-5,-0.14149 0.127627,-0.15553 1.423455,-0.15666 1.223482,-0.001 1.41975,0.0176 1.397822,0.13322 -0.01801,0.0949 -0.159563,0.14225 -0.481381,0.16097 l -0.455873,0.0265 -0.05464,1.03923 c -0.162306,3.08692 -0.235867,6.21005 -0.151496,6.43196 0.142336,0.37438 0.46281,0.52455 1.231882,0.57726 1.315585,0.0902 2.065662,-0.319 2.332613,-1.27245 0.08209,-0.29321 0.153045,-0.39021 0.285416,-0.39021 0.159767,0 0.170292,0.0392 0.113073,0.42073 -0.0347,0.2314 -0.150755,0.70099 -0.257897,1.04353 l -0.194804,0.6228 -0.706908,0.0111 c -0.388799,0.006 -1.206471,-0.0252 -1.817048,-0.0696 z m -25.044755,-0.18567 c 0,-0.10439 0.06925,-0.15542 0.210926,-0.15542 0.11601,0 0.329169,-0.0237 0.473686,-0.0525 l 0.262758,-0.0525 0.116979,-3.74715 c 0.09019,-2.88889 0.09293,-3.79208 0.01197,-3.94335 -0.0702,-0.13117 -0.221831,-0.21488 -0.457447,-0.25256 -0.242794,-0.0388 -0.352402,-0.10118 -0.352317,-0.20043 8.9e-5,-0.14633 0.605474,-0.18822 3.152673,-0.21817 1.184007,-0.0139 2.034785,0.4052 2.466451,1.21504 0.285562,0.53574 0.283842,1.80369 -0.0032,2.34254 -0.488419,0.91697 -1.386539,1.4589 -2.44999,1.47834 -0.571902,0.0105 -0.637473,-0.006 -0.660265,-0.16601 -0.02243,-0.15745 0.02841,-0.17886 0.447684,-0.18855 0.791704,-0.0183 1.499404,-0.50735 1.81136,-1.25178 0.06587,-0.15718 0.119758,-0.57896 0.119758,-0.93728 0,-1.20767 -0.5467,-1.88868 -1.694125,-2.11033 -0.264962,-0.0512 -0.665503,-0.0685 -0.890091,-0.0386 l -0.40834,0.0545 -0.05741,1.3479 c -0.03158,0.74134 -0.08402,2.45669 -0.116555,3.81189 -0.05509,2.29506 -0.0482,2.47609 0.100495,2.6404 0.0878,0.097 0.294032,0.20161 0.458288,0.23242 0.194698,0.0365 0.298646,0.10669 0.298646,0.20157 0,0.12877 -0.163636,0.14553 -1.420979,0.14553 -1.294106,0 -1.420979,-0.0139 -1.420979,-0.15542 z m 6.12793,0.0115 c 3.1e-5,-0.10548 0.11116,-0.15639 0.416495,-0.19081 0.252816,-0.0285 0.46149,-0.10853 0.531075,-0.2037 0.320588,-0.43843 2.367486,-5.60856 3.011847,-7.60744 0.214667,-0.66593 0.284268,-0.78656 0.496487,-0.86054 l 0.246818,-0.086 0.278443,0.90494 c 1.528047,4.96618 1.975844,6.38953 2.136696,6.7916 0.245218,0.61296 0.583093,0.96669 0.997657,1.04446 0.222619,0.0418 0.321784,0.10427 0.303832,0.19152 -0.02192,0.10652 -0.290742,0.13221 -1.514248,0.1447 -1.363339,0.0139 -1.487596,0.002 -1.487587,-0.14024 7e-6,-0.11485 0.07534,-0.15705 0.288646,-0.16166 0.6138,-0.0133 0.610805,0.007 0.212205,-1.44973 l -0.361894,-1.32276 -1.423845,0.0595 c -1.176091,0.0491 -1.443091,0.0851 -1.53446,0.20684 -0.209425,0.27897 -0.673906,1.84939 -0.615645,2.08152 0.05745,0.22892 0.379007,0.43087 0.686034,0.43087 0.106002,0 0.173419,0.0604 0.173381,0.15542 -5.9e-5,0.14154 -0.12696,0.15542 -1.421021,0.15542 -1.250644,0 -1.420952,-0.0172 -1.420916,-0.14387 z m 5.417145,-3.34197 c -1.77e-4,-0.0366 -0.2341,-0.92585 -0.519759,-1.97605 -0.348896,-1.28267 -0.558585,-1.90944 -0.638815,-1.90944 -0.07581,0 -0.354568,0.68121 -0.763187,1.86504 -0.354064,1.02577 -0.645919,1.91499 -0.648568,1.97605 -0.0036,0.0839 0.309376,0.11101 1.282946,0.11101 0.70827,0 1.287592,-0.03 1.287383,-0.0666 z"
         id="path228" /><path
         style="fill:#c2c2c2;fill-opacity:1;stroke-width:0.0888112"
         d="m 68.714652,164.34499 c 0.339303,-0.34192 0.636897,-0.62168 0.66132,-0.62168 0.02442,0 -0.233205,0.27976 -0.572509,0.62168 -0.339303,0.34192 -0.636897,0.62168 -0.66132,0.62168 -0.02442,0 0.233206,-0.27976 0.572509,-0.62168 z m 15.009091,0 c 0.339304,-0.34192 0.636897,-0.62168 0.66132,-0.62168 0.02442,0 -0.233205,0.27976 -0.572508,0.62168 -0.339304,0.34192 -0.636897,0.62168 -0.661321,0.62168 -0.02442,0 0.233206,-0.27976 0.572509,-0.62168 z m 10.94598,-2.98959 c 0.06106,-0.0246 0.16097,-0.0246 0.222027,0 0.06106,0.0246 0.0111,0.0448 -0.111013,0.0448 -0.122116,0 -0.172072,-0.0202 -0.111014,-0.0448 z"
         id="path226" /><path
         style="fill:#b0b0b0;fill-opacity:1;stroke-width:0.0888112"
         d="m 69.315818,165.26037 c 0.08641,-0.0225 0.206306,-0.021 0.266433,0.003 0.06013,0.0243 -0.01057,0.0427 -0.157109,0.0409 -0.146539,-0.002 -0.195735,-0.0217 -0.109324,-0.0442 z m 15.009091,0 c 0.08641,-0.0225 0.206306,-0.021 0.266434,0.003 0.06013,0.0243 -0.01057,0.0427 -0.15711,0.0409 -0.146539,-0.002 -0.195735,-0.0217 -0.109324,-0.0442 z m 6.127972,0 c 0.08641,-0.0225 0.206306,-0.021 0.266434,0.003 0.06013,0.0243 -0.01057,0.0427 -0.15711,0.0409 -0.146538,-0.002 -0.195735,-0.0217 -0.109324,-0.0442 z m -20.739103,-0.35638 c 0.109904,-0.0212 0.289747,-0.0212 0.39965,0 0.109904,0.0212 0.01998,0.0385 -0.199825,0.0385 -0.219807,0 -0.309729,-0.0173 -0.199825,-0.0385 z m 2.952972,0.0291 c 0,-0.0184 0.06994,-0.0884 0.15542,-0.15542 0.14086,-0.11046 0.144001,-0.10732 0.03353,0.0335 -0.11602,0.14793 -0.188951,0.19498 -0.188951,0.12188 z m 12.056119,-0.0291 c 0.109904,-0.0212 0.289747,-0.0212 0.399651,0 0.109903,0.0212 0.01998,0.0385 -0.199826,0.0385 -0.219807,0 -0.309729,-0.0173 -0.199825,-0.0385 z m 2.952972,0.0291 c 0,-0.0184 0.06994,-0.0884 0.15542,-0.15542 0.14086,-0.11046 0.144001,-0.10732 0.03353,0.0335 -0.11602,0.14793 -0.188951,0.19498 -0.188951,0.12188 z m 3.175,-0.0291 c 0.109904,-0.0212 0.289747,-0.0212 0.399651,0 0.109904,0.0212 0.01998,0.0385 -0.199825,0.0385 -0.219808,0 -0.309729,-0.0173 -0.199826,-0.0385 z M 71.526227,164.4338 c 0,-0.12211 0.02016,-0.17207 0.0448,-0.11101 0.02464,0.0611 0.02464,0.16097 0,0.22203 -0.02464,0.0611 -0.0448,0.0111 -0.0448,-0.11102 z m 15.009091,0 c 0,-0.12211 0.02016,-0.17207 0.0448,-0.11101 0.02464,0.0611 0.02464,0.16097 0,0.22203 -0.02464,0.0611 -0.0448,0.0111 -0.0448,-0.11102 z m 3.538425,-0.29997 c 0,-0.0184 0.06994,-0.0884 0.15542,-0.15542 0.14086,-0.11046 0.144001,-0.10733 0.03353,0.0335 -0.116021,0.14793 -0.188952,0.19498 -0.188952,0.12188 z m 4.632205,-0.49933 c 0,-0.12211 0.02016,-0.17207 0.04479,-0.11101 0.02464,0.061 0.02464,0.16097 0,0.22202 -0.02464,0.0611 -0.04479,0.0111 -0.04479,-0.11101 z m -13.151067,-1.56159 c 0.0043,-0.10347 0.02531,-0.12451 0.05366,-0.0537 0.02566,0.0641 0.0225,0.14071 -0.007,0.17022 -0.02951,0.0295 -0.0505,-0.023 -0.04665,-0.11656 z m 13.092639,-0.30344 c -0.03019,-0.0489 -0.01256,-0.0888 0.03916,-0.0888 0.05173,0 0.09405,0.04 0.09405,0.0888 0,0.0488 -0.01762,0.0888 -0.03916,0.0888 -0.02154,0 -0.06387,-0.04 -0.09405,-0.0888 z m -25.221749,-0.44304 c -0.03111,-0.0503 0.0045,-0.0652 0.08357,-0.0349 0.153858,0.059 0.182009,0.1227 0.05426,0.1227 -0.04596,0 -0.107987,-0.0395 -0.13783,-0.0878 z m 15.009091,0 c -0.03111,-0.0503 0.0045,-0.0652 0.08357,-0.0349 0.153858,0.059 0.182009,0.1227 0.05426,0.1227 -0.04596,0 -0.107987,-0.0395 -0.13783,-0.0878 z"
         id="path224" /><path
         style="fill:#5071c8;fill-opacity:1;stroke-width:0.0888112"
         d="m 71.363943,165.27054 c -0.215868,-0.21587 -0.226682,-0.26901 -0.188604,-0.92678 0.05306,-0.91662 0.422265,-1.68848 1.174045,-2.45446 0.472067,-0.48099 0.593851,-0.55754 0.975684,-0.61339 0.365298,-0.0534 0.455436,-0.0376 0.553941,0.0971 0.452736,0.61916 -0.06683,2.49487 -0.960436,3.46732 -0.61985,0.67455 -1.160653,0.8242 -1.55463,0.43023 z m 1.223065,-0.23976 c 0.558305,-0.37433 1.056665,-1.61875 1.056665,-2.63853 0,-0.5225 -0.170518,-0.88922 -0.413466,-0.88922 -0.798424,0 -1.626001,1.39372 -1.660023,2.79563 -0.02147,0.88455 0.369555,1.16609 1.016824,0.73212 z m 1.972262,0.32347 c -0.07473,-0.19475 0.08553,-0.43199 0.291817,-0.43199 0.216915,0 0.262105,0.24962 0.07844,0.43328 -0.183096,0.1831 -0.299658,0.18269 -0.370258,-0.001 z m 2.150515,-0.99229 c 0.165046,-0.62566 0.401429,-1.45494 0.525293,-1.84283 0.299673,-0.93845 0.298589,-0.94651 -0.105566,-0.78572 l -0.333041,0.1325 0.222028,-0.17727 c 0.281764,-0.22496 0.87413,-0.49563 0.940172,-0.42958 0.02764,0.0276 -0.07577,0.44353 -0.229798,0.9242 -0.154025,0.48069 -0.413253,1.38894 -0.576062,2.01835 -0.162808,0.62942 -0.349554,1.17832 -0.414989,1.2198 -0.318009,0.20156 -0.3219,0.0545 -0.02804,-1.05945 z m 2.176008,0.96221 c -0.51661,-0.51661 -0.233947,-1.93806 0.606063,-3.04776 0.485893,-0.64189 0.855964,-0.9127 1.36475,-0.99866 0.323365,-0.0546 0.391973,-0.0359 0.540961,0.14797 0.142834,0.17624 0.163922,0.31179 0.129462,0.83221 -0.0781,1.17953 -0.88023,2.64592 -1.663875,3.04178 -0.486964,0.24599 -0.74927,0.25255 -0.977361,0.0245 z m 1.35718,-0.42569 c 0.522945,-0.49622 0.885031,-1.53675 0.898171,-2.58108 0.0058,-0.46465 -0.02375,-0.58478 -0.170548,-0.69225 -0.366245,-0.26813 -0.916441,0.0451 -1.35599,0.77202 -0.363738,0.60152 -0.460583,0.92962 -0.525555,1.78053 -0.04726,0.61895 -0.03477,0.69328 0.147102,0.87515 0.252107,0.25211 0.641338,0.19243 1.00682,-0.15437 z m 1.814529,0.49004 c -0.02323,-0.0611 -0.0077,-0.2039 0.03448,-0.31743 0.08934,-0.24036 0.369881,-0.23237 0.41692,0.0119 0.05747,0.29839 -0.349352,0.57377 -0.451401,0.30555 z m 4.315532,-0.11798 c -0.215868,-0.21587 -0.226682,-0.26901 -0.188604,-0.92678 0.05306,-0.91662 0.422265,-1.68848 1.174045,-2.45446 0.472067,-0.48099 0.593852,-0.55754 0.975685,-0.61339 0.365297,-0.0534 0.455435,-0.0376 0.55394,0.0971 0.452736,0.61916 -0.06683,2.49487 -0.960436,3.46732 -0.61985,0.67455 -1.160653,0.8242 -1.55463,0.43023 z m 1.223066,-0.23976 c 0.558304,-0.37433 1.056664,-1.61875 1.056664,-2.63853 0,-0.5225 -0.170518,-0.88922 -0.413466,-0.88922 -0.798424,0 -1.626001,1.39372 -1.660023,2.79563 -0.02147,0.88455 0.369555,1.16609 1.016825,0.73212 z m -19.725154,0.33836 c 0,-0.0341 0.430717,-0.50831 0.95715,-1.05376 1.055714,-1.09384 1.288965,-1.41979 1.451869,-2.02887 0.09538,-0.35662 0.09014,-0.44042 -0.03994,-0.63895 -0.08235,-0.12567 -0.279398,-0.26595 -0.437894,-0.31172 -0.283963,-0.082 -0.282152,-0.0833 0.12384,-0.0912 0.797283,-0.0155 1.03128,0.49703 0.606795,1.32909 -0.1092,0.21405 -0.65949,0.86005 -1.222867,1.43557 -0.563377,0.57551 -1.00771,1.06286 -0.987406,1.083 0.0203,0.0201 0.21676,0.002 0.436568,-0.0406 0.536945,-0.10377 1.664385,-0.10526 1.728025,-0.002 0.09708,0.15708 -0.176445,0.22818 -0.884319,0.22986 -0.390769,9.7e-4 -0.940288,0.0355 -1.221154,0.0768 -0.280865,0.0413 -0.510664,0.0472 -0.510664,0.0131 z m 15.009091,0 c 0,-0.0341 0.430717,-0.50831 0.95715,-1.05376 1.055714,-1.09384 1.288965,-1.41979 1.451869,-2.02887 0.09538,-0.35662 0.09014,-0.44042 -0.03994,-0.63895 -0.08235,-0.12567 -0.279398,-0.26595 -0.437894,-0.31172 -0.283963,-0.082 -0.282152,-0.0833 0.12384,-0.0912 0.797284,-0.0155 1.03128,0.49703 0.606795,1.32909 -0.1092,0.21405 -0.65949,0.86005 -1.222867,1.43557 -0.563377,0.57551 -1.007709,1.06286 -0.987405,1.083 0.0203,0.0201 0.216759,0.002 0.436567,-0.0406 0.536945,-0.10377 1.664386,-0.10526 1.728025,-0.002 0.09708,0.15708 -0.176445,0.22818 -0.884319,0.22986 -0.390769,9.7e-4 -0.940288,0.0355 -1.221154,0.0768 -0.280865,0.0413 -0.510664,0.0472 -0.510664,0.0131 z m 6.127972,0.002 c 0,-0.0328 0.429624,-0.50865 0.95472,-1.05745 1.132681,-1.1838 1.465322,-1.72988 1.425893,-2.34078 -0.0224,-0.34715 -0.06781,-0.4429 -0.26135,-0.55109 -0.365867,-0.20452 -0.926255,-0.006 -1.118043,0.3963 -0.159787,0.33507 -0.29073,0.39918 -0.29073,0.14232 0,-0.52213 1.413737,-0.95047 1.934084,-0.58601 0.151291,0.10597 0.197384,0.22635 0.197384,0.51548 0,0.52781 -0.309479,0.97295 -1.507614,2.16849 -0.552073,0.55088 -0.984704,1.02066 -0.961403,1.04396 0.0233,0.0233 0.254114,0.002 0.512918,-0.0469 0.258804,-0.0491 0.747783,-0.0892 1.086621,-0.0892 0.538999,0 0.612301,0.0194 0.585948,0.15542 -0.02583,0.13327 -0.137484,0.15566 -0.78361,0.15711 -0.41442,9.7e-4 -0.983288,0.0355 -1.264153,0.0768 -0.280866,0.0413 -0.510665,0.0483 -0.510665,0.0155 z m 3.114102,-0.0442 c -0.10658,-0.0674 -0.108134,-0.10402 -0.0095,-0.2229 0.105924,-0.12763 0.133399,-0.12833 0.267716,-0.007 0.08232,0.0745 0.306393,0.13826 0.497931,0.1417 0.275792,0.005 0.311295,0.0221 0.170629,0.0826 -0.238137,0.10233 -0.768742,0.10543 -0.926807,0.005 z m 1.416172,-0.29404 c 0.390244,-0.2656 0.615869,-0.5836 0.70991,-1.00056 0.116287,-0.51561 0.01881,-0.85048 -0.280434,-0.96343 -0.139016,-0.0525 -0.252757,-0.11787 -0.252757,-0.14532 0,-0.0275 0.23979,-0.28721 0.532867,-0.57723 0.293077,-0.29002 0.532868,-0.55352 0.532868,-0.58554 0,-0.032 -0.359686,-0.0377 -0.799301,-0.0127 -0.512629,0.0292 -0.799301,0.0132 -0.799301,-0.0448 0,-0.1877 0.514125,-0.29643 1.281638,-0.27103 l 0.782898,0.0259 -0.596528,0.64388 c -0.32809,0.35413 -0.551004,0.64388 -0.495364,0.64388 0.05564,0 0.19926,0.0981 0.319155,0.21799 0.482207,0.48221 0.156866,1.45678 -0.672194,2.01358 -0.208946,0.14033 -0.419761,0.25514 -0.46848,0.25514 -0.04872,0 0.04354,-0.0899 0.205023,-0.19982 z m -24.956848,-3.02479 c 0,-0.23836 0.532039,-0.68974 0.79686,-0.67605 0.118935,0.006 0.119236,0.013 0.0024,0.0557 -0.234779,0.0858 -0.532867,0.40717 -0.532867,0.57444 0,0.0892 -0.05995,0.16214 -0.133217,0.16214 -0.07327,0 -0.133217,-0.0523 -0.133217,-0.11624 z m 15.009092,0 c 0,-0.23836 0.532038,-0.68974 0.796859,-0.67605 0.118935,0.006 0.119236,0.013 0.0024,0.0557 -0.234779,0.0858 -0.532867,0.40717 -0.532867,0.57444 0,0.0892 -0.05995,0.16214 -0.133217,0.16214 -0.07327,0 -0.133217,-0.0523 -0.133217,-0.11624 z"
         id="path220" /></g></g></svg>
