<svg
   viewBox="0 0 78 78"
   version="1.1">
     <path
       d="m 258.94245,57.511264 c -1.68114,-0.494538 -3.25374,-1.759796 -4.91067,-2.417233 -4.08508,-1.620944 -8.58545,-2.34188 -12.954,-1.695281 -1.92879,0.285496 -4.25348,0.771313 -5.92666,1.810936 -0.36822,0.228769 -1.8283,1.331214 -1.13428,1.87579 0.27762,0.217847 0.77639,-0.02345 1.04961,-0.13335 0.89755,-0.361019 1.77859,-0.741342 2.70933,-1.01363 2.5687,-0.751332 5.28625,-1.152313 7.95867,-0.896959 0.70908,0.06782 1.93294,-0.04707 2.5207,0.414698 0.48107,0.377952 0.21454,1.210564 0.13961,1.716363 -0.22123,1.494874 -0.47058,3.057398 -0.36677,4.572 0.0597,0.86995 0.23003,1.879177 0.85479,2.532042 1.05901,1.106593 3.77139,1.616794 5.23367,1.955292 l -0.32309,-2.878667 0.0319,-3.979334 -0.97883,-2.709333 c 1.64203,0.389128 3.26966,1.335786 4.74133,2.136224 0.52655,0.286343 1.36365,0.615696 1.65464,1.169163 0.53366,1.015068 -0.41698,2.850303 -0.381,3.975947 0.0732,2.29218 1.7968,3.539744 3.55236,4.685792 0.55051,0.35941 1.07663,0.837692 1.69334,1.071541 l 0.35983,-1.947333 0.5715,-3.217334 c 0.71908,0.475658 1.27813,1.119632 1.82584,1.778 0.60799,0.730928 1.79493,1.901275 1.8906,2.878667 0.14682,1.499786 -1.25704,3.05816 -2.02311,4.233334 -1.36652,2.096347 -2.97069,5.17796 -2.50063,7.789334 0.0606,0.336973 0.21345,1.189228 0.65363,1.223772 0.5875,0.04606 1.77191,-1.494536 2.18567,-1.90136 0.74786,-0.73533 1.52358,-1.376341 2.07738,-2.285746 0.86843,-1.425787 1.22183,-3.113024 1.81729,-4.656667 h 0.16933 c 0.2203,0.691473 0.73059,1.282023 1.02777,1.947334 0.63466,1.421045 1.08399,2.894584 1.45915,4.402667 0.15587,0.626364 0.54508,1.558883 0.42164,2.201333 -0.1226,0.637625 -0.78326,1.016254 -1.20083,1.446869 -0.85598,0.882819 -1.77843,2.097702 -1.79206,3.379132 -0.0118,1.099227 0.60613,2.112518 1.26111,2.962994 0.3109,0.403691 0.92516,0.984589 1.19389,0.254339 -0.68241,-0.07103 -0.84455,-0.920835 -1.13657,-1.439333 -0.36229,-0.642959 -0.76606,-1.357207 -0.78875,-2.116667 -0.0368,-1.229276 1.21835,-2.503255 2.09465,-3.217334 -0.50893,1.222333 -1.10066,2.192444 -1.10066,3.556001 h 0.0847 c 0.36957,-1.16857 0.70223,-2.458721 1.69334,-3.302001 l -0.42334,5.164667 h 0.0847 c 0.32554,-1.026922 -0.0619,-2.436368 0.84667,-3.217333 0.11904,0.884005 0.4787,1.701546 0.76166,2.54 0.22182,0.657267 0.2656,1.399032 0.53882,2.032 0.44822,1.038776 2.20802,2.506472 3.35618,2.624667 -0.19642,-0.849291 -0.47667,-1.967399 -1.12615,-2.585043 -0.60511,-0.575818 -1.42553,-0.69469 -1.96147,-1.394375 -0.61214,-0.799338 -0.76581,-2.073318 -0.89171,-3.047916 1.31843,1.317583 2.84641,1.560661 4.572,2.056638 0.57743,0.165862 1.26407,0.607653 1.86267,0.483362 -0.34629,-1.67496 -1.28948,-3.921337 -2.87867,-4.718473 -1.1739,-0.588857 -3.10778,-0.666835 -4.05477,-1.564979 -0.44848,-0.425281 -0.45763,-1.107694 -0.59208,-1.675215 -0.31013,-1.308862 -0.82863,-2.713651 -0.85648,-4.064 1.50359,0.788501 3.52162,1.74117 5.24933,1.778 l -1.31631,-2.286 -1.13902,-4.826001 c 1.0132,0.08001 1.87638,-0.04784 2.87866,-0.204046 0.30142,-0.04699 0.81788,0.03437 1.04902,-0.197443 0.32428,-0.323935 -0.13123,-0.992886 -0.29972,-1.291844 -0.58843,-1.042924 -1.44102,-1.995678 -2.61196,-2.368212 -1.67039,-0.531452 -3.35357,0.190754 -4.826,0.950722 -0.61782,0.31894 -1.39074,0.931503 -2.11667,0.935229 -0.69994,0.0036 -1.1585,-1.229869 -1.5003,-1.719073 -0.9,-1.288118 -1.92438,-2.49174 -2.99457,-3.640667 -0.54559,-0.585639 -1.46397,-1.241721 -1.6858,-2.032 2.70222,0 5.06493,-1.777407 7.366,-3.021838 0.83414,-0.451104 2.11938,-0.876723 2.62467,-1.719495 l -3.302,-0.221065 -4.826,-1.288458 -2.286,0.239523 c 1.13673,-2.049865 0.91914,-3.679783 0.10092,-5.842001 -0.15697,-0.414867 -0.40471,-1.902155 -1.03353,-1.757875 -0.75471,0.173135 -1.43984,1.323958 -1.83218,1.927208 -1.56625,2.407921 -1.64406,5.086435 -2.14588,7.789334 m 3.048,-0.677333 0.762,-3.048 c -0.35399,0.342646 -0.38024,0.901361 -0.54491,1.354666 -0.28025,0.771399 -0.63712,1.494198 -1.05199,2.201334 -0.1971,0.336042 -0.45313,0.926423 -0.8597,1.044617 -1.17992,0.342985 -0.81086,-2.211154 -0.74761,-2.73795 0.23326,-1.94327 0.82347,-3.987293 1.83261,-5.672668 0.31767,-0.530521 0.69935,-1.326811 1.28566,-1.604687 0.39794,-0.188536 0.50182,0.207941 0.59606,0.504105 0.23325,0.733129 0.48243,1.452711 0.66421,2.201249 0.54085,2.226818 0.0306,4.384295 -1.93633,5.757334 m -8.382,8.297334 c -0.6847,-0.03556 -1.07535,-0.475403 -1.60867,-0.846667 l 0.67734,0.846667 v 0.08467 c -0.57599,-0.08509 -1.15299,-0.31115 -1.69334,-0.525272 -3.97992,-1.576663 -2.11666,-6.032416 -2.11666,-9.296062 0.50376,0.332909 0.58962,1.302173 0.68402,1.862666 0.26534,1.57497 0.4279,3.064849 1.00931,4.572001 h 0.0847 l -0.59233,-2.794001 -0.46084,-2.794 -0.64017,-1.439333 c 2.00516,0.04166 3.19261,1.856147 4.00025,3.471333 0.29709,0.594191 0.67886,1.274657 0.73321,1.947334 0.13454,1.666409 -0.50842,3.242225 -0.0768,4.910667 m 18.796,-7.958667 v 0.08467 l -2.032,0.423334 v 0.08467 l 1.94734,-0.254 c -0.53239,0.610024 -1.63949,0.847937 -2.37067,1.173565 -1.72322,0.767419 -3.44221,2.334599 -5.41867,2.293197 -1.01185,-0.02117 -1.63762,-0.924729 -2.62467,-1.011428 l 1.10067,-0.414443 2.20133,-0.770891 v -0.08467 c -1.51155,0.312843 -3.26474,1.104307 -4.826,0.846666 0.16993,-0.716703 0.85057,-1.352126 1.35501,-1.862666 0.74202,-0.750909 1.56549,-1.550162 2.62433,-1.819064 1.53738,-0.390482 3.3368,0.40386 4.826,0.771398 1.06036,0.26162 2.1656,0.289306 3.21733,0.539666 m -2.70933,0.592666 v 0.08467 h 0.42333 l -0.42333,-0.08467 m 0.59266,0 0.0847,0.08467 -0.0847,-0.08467 m -5.02352,0.874861 0.0564,0.02828 -0.0564,-0.02828 m -1.24181,9.708474 h -0.0847 l -0.42333,-1.270001 h -0.0847 l 0.16934,1.947334 c -1.35179,-0.940986 -3.57463,-2.434844 -4.06045,-4.064 -0.40978,-1.374649 -0.0178,-2.700867 0.16578,-4.064001 l 0.88257,1.524 1.9961,2.794001 c -0.23182,-1.16476 -1.47507,-2.450254 -2.01016,-3.556001 -0.14774,-0.305477 -0.59427,-0.983911 -0.4699,-1.327742 0.13648,-0.377021 0.79756,-0.07603 1.04072,-0.0032 0.98933,0.296418 1.85133,0.716196 2.4732,1.58496 1.31547,1.837436 1.0613,4.418415 0.40547,6.434668 m -47.49801,-2.624692 v 0.508 c 1.83845,0.625094 1.27,4.087791 1.27,5.588 v 8.974667 c 0,1.504697 0.12869,3.074332 -0.0144,4.572001 -0.0526,0.550503 -0.10829,1.215136 -0.40852,1.692995 -0.2739,0.436033 -0.80366,0.554482 -0.84709,1.101005 h 5.16467 c -0.0566,-0.711369 -0.98264,-1.112181 -1.13318,-1.947333 -0.397,-2.202011 -0.13682,-4.625933 -0.13682,-6.858001 2.87858,0 5.96451,0.0298 8.46666,-1.615355 3.3401,-2.196085 4.01887,-7.6051 0.762,-10.194376 -3.41655,-2.716191 -9.05679,-1.821603 -13.12333,-1.821603 m 3.89466,13.123334 V 66.316598 c 2.23656,-0.01854 4.37973,-0.06706 6.26534,1.374648 2.82914,2.163149 3.2076,7.658101 0.254,9.894487 -1.88451,1.426972 -4.2882,1.261533 -6.51934,1.261533 m 59.77468,-8.466667 c -1.20058,0.05156 -2.87647,0.584623 -3.97053,-0.115401 -0.54348,-0.347811 -1.07925,-1.136819 -1.44814,-1.662599 l 2.62467,0.423333 c -1.1673,-0.985097 -3.12683,-0.816864 -4.572,-0.846667 0.30319,-0.532807 1.28879,-0.801624 1.86266,-0.939885 2.19041,-0.527727 5.07069,0.713656 5.50334,3.141219 m -2.794,6.096 c -0.68657,-0.193209 -1.13157,-1.025483 -1.60867,-1.524 l 1.778,2.54 c -2.1027,-0.486494 -4.58352,-1.639655 -5.81161,-3.471333 -0.66361,-0.989838 -0.63153,-2.041229 -0.96503,-3.132667 -0.15832,-0.517906 -0.54042,-0.924391 -0.67403,-1.439334 1.13724,0.0094 2.09466,0.514012 2.85445,1.355937 0.49801,0.551688 0.94971,1.370838 1.63289,1.692063 -0.77792,-1.634066 -1.81382,-2.591985 -3.47134,-3.217333 1.11489,-0.834051 3.07645,-0.525272 3.93971,0.50927 1.07087,1.283293 1.2982,3.08864 1.70163,4.655397 0.17552,0.681736 0.52002,1.337903 0.624,2.032 m -7.78934,-6.604 c 2.15172,2.358898 0.65134,6.323415 -1.03623,8.551334 -0.44467,0.587078 -0.99738,1.064852 -1.48938,1.608666 -0.5665,0.62611 -1.09973,1.374395 -1.79239,1.862667 l 0.67733,-2.116667 h -0.0847 l -0.93134,2.032001 h -0.0847 c -0.34502,-4.371679 1.9525,-7.473612 4.064,-11.091335 h 0.0847 c 0.38989,1.319022 -0.47328,2.425108 -0.762,3.640667 h 0.0847 l 1.02464,-2.455333 0.24536,-2.032 m -1.43933,4.572 -0.254,0.592667 0.254,-0.592667 m 7.366,0.08467 0.16933,0.169333 -0.16933,-0.169333 m -7.70467,0.677333 -0.0847,0.254 h 0.0847 v -0.254 m -1.69333,3.979334 -0.0847,0.338666 h 0.0847 v -0.338666 m 15.07067,8.128 -0.59267,-0.169333 0.33867,0.508 c -2.51088,-0.618575 -5.37075,-1.190329 -5.75734,-4.233334 0.90035,0.647446 1.49801,1.622129 2.62467,1.947334 -0.73736,-0.672592 -2.81974,-1.674538 -2.62467,-2.878667 2.38565,0.807043 5.50164,1.967145 6.01134,4.826 M 237.9451,89.26127 c -3.73753,1.768094 -5.66903,7.155265 -2.37059,10.237132 4.16924,3.895518 12.27947,1.894498 14.08278,-3.463798 0.5627,-1.672167 0.38024,-2.980945 -0.28219,-4.572001 2.24316,2.54e-4 4.47937,-0.01846 5.89618,-2.116667 1.25172,-1.853522 1.02989,-5.368544 -1.91685,-5.157047 -0.77699,0.0558 -2.40199,0.918126 -1.63051,1.910589 0.33401,0.429598 1.02438,0.335534 1.33333,-0.06054 0.21463,-0.275082 0.23698,-0.651764 0.49005,-0.902716 0.49039,-0.486495 1.24926,-0.125307 1.62501,0.322918 0.16324,0.194734 0.29193,0.429345 0.37431,0.66946 0.10194,0.297265 0.10558,0.620183 0.0904,0.931333 -0.0791,1.626616 -1.84327,2.557018 -3.29861,2.621365 -2.81347,0.124291 -6.82634,-1.344591 -8.8232,1.442636 -0.80433,1.12268 -1.12048,3.268303 0.35653,4.025646 0.788,0.404029 2.2993,0.04809 2.17983,-1.062228 -0.15291,-1.421892 -1.86995,-0.606468 -2.51849,-0.169418 -1.18441,-2.907115 3.74049,-3.632454 5.33036,-2.028614 1.8807,1.897296 -0.0379,4.905672 -1.77436,6.090159 -2.83701,1.935311 -7.55092,1.951482 -10.15873,-0.43561 -2.44535,-2.238248 -1.85361,-6.550322 1.26873,-7.859269 0.48827,1.046396 3.27118,1.79976 3.08508,0 -0.16603,-1.605703 -1.5682,-0.557107 -2.37473,-0.949283 -0.72737,-0.353737 -0.476,-1.968754 -0.21963,-2.52205 0.54932,-1.185757 2.39472,-2.797895 3.81813,-1.993393 0.54068,0.305562 0.47684,1.071965 1.19448,1.228344 0.67124,0.14622 1.05715,-0.50275 0.89459,-1.097534 -0.34629,-1.267375 -2.5036,-1.106424 -3.43459,-0.802724 -2.21082,0.721275 -4.26788,3.339761 -3.21733,5.713307 m 39.878,-3.894667 0.0847,0.08467 -0.0847,-0.08467 m -71.54334,1.27 c -0.17535,0.897551 0.63585,2.404364 1.35467,2.908385 0.49657,0.348149 1.07696,0.454321 1.51612,0.905256 0.83007,0.852424 1.04631,2.245445 1.19321,3.383026 -1.58708,-1.586061 -4.37684,-2.116921 -6.51934,-2.624667 -0.13741,0.642282 0.26891,1.373802 0.53417,1.947334 0.46168,0.997881 1.02353,2.20218 2.00584,2.765467 0.84895,0.486834 1.85123,0.804164 2.794,1.054354 0.58674,0.155702 1.31199,0.253916 1.76885,0.685631 0.46237,0.43688 0.50792,1.172041 0.6549,1.759882 0.3379,1.351872 0.69748,2.695452 0.96291,4.064002 l -5.334,-1.778 c -0.1496,0.67928 0.86555,1.49005 1.15799,2.11667 0.69266,1.48429 1.07916,3.54601 1.29735,5.16467 -1.03378,0 -1.94734,0.14308 -2.96334,0.30149 -0.30463,0.0475 -0.79925,-0.0442 -1.03657,0.19448 -0.32284,0.3247 0.15257,0.99086 0.32571,1.28203 0.66971,1.12632 1.61849,2.11793 2.9122,2.47692 1.53559,0.42604 3.23951,-0.23766 4.572,-0.98882 0.67987,-0.38329 1.56049,-1.07366 2.37058,-1.09203 0.72009,-0.0163 1.19185,1.21979 1.54872,1.72059 0.92727,1.30124 1.97883,2.51139 3.10803,3.64067 0.5671,0.5671 1.55837,1.33426 1.778,2.11667 -2.77918,0 -5.08279,1.91236 -7.45067,3.15425 -0.81779,0.42901 -2.29065,0.98434 -2.70933,1.84108 1.04817,0.30971 2.42765,0.0151 3.556,0.20439 2.47193,0.41461 4.57683,1.72093 7.112,0.89628 -0.40352,1.10236 -1.00491,1.88129 -0.8095,3.13266 0.11693,0.74846 0.34468,1.48421 0.58369,2.20134 0.17323,0.51985 0.52155,2.30293 1.0906,2.47988 0.6223,0.19304 1.3826,-0.97197 1.67191,-1.37922 1.24197,-1.74836 1.86173,-3.83032 2.21141,-5.92666 0.11421,-0.68411 0.0994,-1.34993 0.17729,-2.032 0.023,-0.20159 0.0738,-0.55355 0.33613,-0.5671 0.54889,-0.0282 1.53661,0.7736 2.01981,1.03818 1.27355,0.69732 2.68808,1.24172 4.064,1.70062 4.43966,1.47912 9.14908,1.80086 13.716,0.762 1.48657,-0.33782 3.31275,-0.81704 4.572,-1.70096 0.45762,-0.32122 1.00999,-0.74176 1.13978,-1.31733 0.11921,-0.52882 -0.25417,-0.70967 -0.71645,-0.57378 -0.81051,0.23825 -1.57539,0.67852 -2.37067,0.97002 -2.80661,1.02862 -5.66547,1.38168 -8.636,1.38168 -0.76979,0 -2.54618,0.0931 -3.09592,-0.5273 -0.48903,-0.55161 -0.0574,-1.86165 0.0238,-2.5207 0.21573,-1.75057 0.47939,-3.81288 -0.16484,-5.50333 -0.64195,-1.68436 -2.7819,-1.87529 -4.29836,-2.31064 -0.34697,-0.0996 -1.58869,-0.72771 -1.74007,-0.21675 -0.17628,0.59495 0.32817,1.40936 0.37812,2.01939 0.13344,1.62678 -0.17983,3.29116 0.13098,4.91066 0.17518,0.91313 0.97748,1.71002 0.97697,2.62467 -1.62746,-0.76132 -3.34086,-1.30971 -4.91067,-2.20133 -0.529,-0.30049 -1.28702,-0.57548 -1.63051,-1.10406 -0.29642,-0.45618 -0.10981,-1.11514 -0.012,-1.60528 0.18491,-0.9265 0.3799,-1.93226 0.26365,-2.87866 -0.3335,-2.71399 -3.21505,-4.28998 -5.39445,-5.50334 l -0.3617,1.94734 -0.56963,3.38666 c -1.21057,-0.75726 -2.07815,-2.02607 -2.94556,-3.13266 -0.39048,-0.4981 -0.89433,-1.03167 -0.9409,-1.69334 -0.0747,-1.06028 0.69876,-2.11243 1.23478,-2.96333 1.48692,-2.36034 3.10109,-4.91016 3.24104,-7.789339 0.0357,-0.733213 0.10143,-1.411394 -0.17187,-2.116667 -0.0837,-0.216239 -0.23106,-0.623485 -0.51782,-0.623485 -0.2938,0 -0.55914,0.352975 -0.74634,0.538903 -0.59385,0.589788 -1.17306,1.196171 -1.778,1.774614 -0.74151,0.708994 -1.42198,1.375494 -1.92092,2.289304 -0.76759,1.40597 -0.8343,3.31309 -1.80441,4.572 -0.26577,-0.80289 -0.88731,-1.50927 -1.24384,-2.286 -0.63289,-1.37846 -1.08577,-2.84904 -1.45475,-4.318002 -0.15764,-0.627465 -0.53086,-1.466597 -0.42739,-2.116667 0.10625,-0.66802 0.82507,-1.14554 1.25569,-1.608667 0.84125,-0.904579 1.73567,-2.093468 1.73727,-3.386667 0.001,-1.121579 -0.68317,-2.196677 -1.36296,-3.047662 -0.30952,-0.387519 -0.94292,-0.959019 -1.21334,-0.254338 0.69892,0.144102 0.83058,0.89281 1.1518,1.439333 0.40243,0.684615 0.83448,1.384216 0.87139,2.201334 0.0555,1.227243 -1.17212,2.64287 -2.10786,3.302 0.64161,-1.099312 1.10067,-2.277195 1.10067,-3.556 l -0.4086,1.185333 -1.28473,2.201334 c -0.36814,-1.010074 0.0832,-2.038351 0.26043,-3.048001 0.13631,-0.776308 0.0268,-1.510792 -0.006,-2.286 h -0.0847 c -0.32055,1.140714 0.0131,2.296838 -0.762,3.302 -0.29379,-1.035473 -0.69621,-2.022009 -1.01388,-3.048 -0.18856,-0.609261 -0.2303,-1.308354 -0.56202,-1.862667 -0.60714,-1.014645 -2.14224,-2.071285 -3.2501,-2.455333 m 66.37867,0.423333 0.0847,0.08467 -0.0847,-0.08467 m -65.95534,0.08467 c 0.8465,0.608076 2.08814,1.317075 2.54,2.286 l -0.59266,-0.338667 0.33866,0.762 c -0.96621,-0.229531 -2.77681,-1.505542 -2.286,-2.709333 m 67.14065,1.862664 v 0.254 h 0.0847 l -0.0847,-0.254 m -61.55268,0.423333 0.0847,0.08467 -0.0847,-0.08467 m 61.38334,0.169333 0.0847,0.08467 -0.0847,-0.08467 m 5.41867,2.794001 c -0.8945,-0.456608 -2.07425,-1.388195 -2.54,-2.286 l 0.59267,0.338666 -0.33867,-0.762 c 1.23029,0.354415 2.25806,1.391836 2.286,2.709334 m -66.97134,-2.540001 0.0847,0.08467 -0.0847,-0.08467 m 61.38334,0.169334 0.0847,0.08467 -0.0847,-0.08467 m -61.46801,0.169333 -0.0847,0.338667 h 0.0847 V 90.1926 m 37.33801,1.185334 -0.0847,0.08467 0.0847,-0.08467 m -38.69267,4.826 c -0.94548,-0.665988 -1.56735,-1.557867 -2.70934,-1.947334 0.98451,0.897975 2.46363,1.480905 2.87867,2.878667 -0.61849,-0.03175 -1.20066,-0.327914 -1.778,-0.534077 -1.96359,-0.701209 -4.06527,-1.997964 -4.572,-4.207256 l 0.59267,0.169333 -0.254,-0.508 c 2.34103,0.186351 5.78383,1.346285 5.842,4.148667 m 2.54,-3.81 0.0847,0.08467 -0.0847,-0.08467 m 43.51867,2.878667 c 0.0204,0.613579 0.55245,0.694182 0.83938,1.185418 0.35984,0.615865 0.39675,1.504696 0.42732,2.201248 0.13656,3.119543 0.003,6.275163 0.003,9.398003 0,2.17196 0.19134,4.44255 -0.0144,6.604 -0.0607,0.63856 -0.0886,1.3832 -0.42799,1.947 -0.26348,0.43789 -0.78469,0.56108 -0.82761,1.101 h 5.16466 v -0.42333 c -0.98221,-0.38058 -1.09888,-1.28058 -1.22123,-2.20133 -0.26594,-2.00085 -0.0488,-4.16171 -0.0488,-6.18067 2.77843,0 5.75827,0.0779 8.21267,-1.44492 3.40944,-2.11531 4.41164,-7.570223 1.10067,-10.284467 -3.42113,-2.804499 -9.09972,-1.901952 -13.208,-1.901952 m 3.89466,13.123339 V 95.865267 c 2.1712,-0.01795 4.3418,-0.08949 6.18067,1.312588 2.94733,2.247138 3.281,7.814565 0.16933,10.075935 -1.82913,1.32926 -4.21369,1.14215 -6.35,1.14215 m -39.70834,-10.668006 -0.67733,2.116667 h 0.0847 l 0.93133,-2.116667 h 0.0847 c 0.79257,4.253906 -1.95131,7.955456 -3.97933,11.430006 h -0.0847 c -0.38871,-1.31504 0.35433,-2.52823 0.762,-3.72533 h -0.0847 c -0.75895,1.62568 -1.18533,2.84276 -1.18533,4.65666 -2.59834,-1.99331 -0.71705,-6.73015 0.82643,-8.80534 0.45042,-0.60562 1.0215,-1.12784 1.5201,-1.693329 0.56388,-0.639741 1.10092,-1.368722 1.80213,-1.862667 m -0.762,2.285996 -0.16933,0.508 h 0.0847 l 0.0847,-0.508 m -11.59934,2.37067 c 2.27499,0.74024 4.80551,1.63331 6.08813,3.81001 0.48683,0.82609 0.4969,1.72863 0.74836,2.62466 0.16781,0.59766 0.5384,1.05512 0.78351,1.60867 -2.21522,0.35255 -3.1529,-1.98857 -4.65667,-3.048 0.55533,1.50486 1.92227,3.00634 3.556,3.21733 -0.66091,1.08416 -2.96359,0.58302 -3.72406,-0.10033 -1.36059,-1.2225 -1.61976,-3.31292 -2.09338,-4.97967 -0.19973,-0.7029 -0.57531,-1.40673 -0.70189,-2.11666 0.66311,0.18609 1.32833,0.99661 1.60867,1.60866 h 0.0847 c -0.15799,-0.66463 -0.55245,-1.20404 -1.01931,-1.69333 -0.249,-0.26095 -0.68207,-0.55017 -0.67403,-0.93134 m 9.906,1.86267 -0.0847,0.254 0.0847,-0.254 m -0.16933,0.42334 -0.254,0.59266 0.254,-0.59266 m -7.95867,0.508 0.16934,0.16933 -0.16934,-0.16933 m 1.016,6.26533 -2.62467,-0.42333 c 1.18034,1.05884 3.17788,0.762 4.65667,0.762 -0.25053,0.65701 -1.48175,0.94784 -2.11666,1.0828 -2.08314,0.44297 -5.17119,-0.78359 -5.41867,-3.19947 1.24925,-0.0258 2.80407,-0.63492 3.97595,0.0353 0.35957,0.20574 0.57344,0.60113 0.85344,0.89602 0.25891,0.27263 0.51418,0.50402 0.67394,0.84667 m 11.59934,-0.59267 c 1.19566,1.04445 3.02768,2.01752 3.85411,3.38667 0.8531,1.41342 0.46947,3.40529 0.12522,4.91067 h -0.0847 l -2.794,-4.48734 h -0.0847 c 0.0805,0.55127 0.51562,0.98595 0.81847,1.43934 0.49395,0.73956 0.9216,1.49106 1.31911,2.286 0.16061,0.32122 0.5792,0.88112 0.49284,1.25747 -0.10473,0.45652 -0.75853,0.12573 -1.02176,0.0538 -0.93395,-0.25484 -1.87079,-0.6107 -2.49614,-1.39632 -1.50207,-1.88671 -1.33578,-4.62331 -0.63652,-6.77299 h 0.0847 l 0.42333,1.27 h 0.0847 l -0.0847,-1.94734 m 11.26067,3.64067 c 1.0729,0.56312 2.35594,0.60875 3.29862,1.45711 0.78249,0.70418 0.97874,1.77529 1.0226,2.77622 0.0855,1.95428 -0.34188,3.88451 -0.34188,5.842 -0.51105,-0.33765 -0.62349,-1.29489 -0.72611,-1.86266 -0.24748,-1.36999 -0.19422,-3.59808 -1.22123,-4.65667 l 0.65947,2.70933 0.52832,2.96334 0.67488,1.43933 c -2.12784,-0.0178 -3.35983,-1.9354 -4.21242,-3.64067 -0.32419,-0.64829 -0.69478,-1.29743 -0.76844,-2.032 -0.081,-0.80662 0.17713,-1.57454 0.23191,-2.37066 0.0598,-0.8686 -0.0514,-1.68572 -0.16172,-2.54 l 1.60867,0.93133 -0.59267,-1.016 m -9.48267,5.588 -1.10066,0.43409 -2.286,0.83591 v 0.0847 c 1.49589,-0.3429 3.45228,-1.29769 4.99533,-0.93134 -0.21666,0.67844 -0.80019,1.25349 -1.26577,1.778 -0.78748,0.88714 -1.76225,1.81568 -2.96756,2.07281 -1.14326,0.24393 -2.37177,-0.18609 -3.47134,-0.45313 -1.51579,-0.36813 -3.01811,-0.65041 -4.572,-0.77301 v -0.16933 l 2.032,-0.42334 v -0.0847 l -1.94733,0.33866 c 0.33071,-0.6322 1.48801,-0.8934 2.11666,-1.17356 1.84913,-0.82415 3.71552,-2.60367 5.84201,-2.54076 1.00236,0.0296 1.64481,0.91888 2.62466,1.00499 m -3.49953,1.38286 0.0564,0.0283 -0.0564,-0.0283 m 3.49953,1.83447 -0.762,3.13267 c 0.36906,-0.35729 0.37939,-0.96351 0.53806,-1.43933 0.26365,-0.79155 0.65151,-1.56642 1.07162,-2.286 0.1977,-0.33867 0.43519,-0.9249 0.84693,-1.04462 1.14071,-0.33156 0.88502,2.11463 0.82126,2.65328 -0.24451,2.06587 -0.7813,4.20286 -1.83955,6.01134 -0.30624,0.52324 -0.74236,1.44695 -1.35204,1.66539 -0.32868,0.11853 -0.45255,-0.23453 -0.53323,-0.48006 -0.23123,-0.70443 -0.47625,-1.40208 -0.67827,-2.11667 -0.59918,-2.11751 -0.31758,-4.95223 1.88722,-6.096 m -8.382,-0.93133 v 0.0847 h 0.42333 z" />
       </svg>
